# MagicaVoxel @ Ephtracy

# group
o 

# material
mtllib trash1.mtl
usemtl palette

# normals
vn -1 0 0
vn 1 0 0
vn 0 0 1
vn 0 0 -1
vn 0 -1 0
vn 0 1 0

# texcoords
vt 0.0332031 0.5
vt 0.369141 0.5
vt 0.373047 0.5
vt 0.513672 0.5
vt 0.650391 0.5
vt 0.677734 0.5
vt 0.908203 0.5
vt 0.982422 0.5
vt 0.986328 0.5

# verts
v 1.6 2 -1.9
v 1.6 2 -2
v 1.6 2 -2.1
v 1.6 2.1 -1.9
v 1.6 2.1 -2
v 1.6 2.1 -2.1
v 1.7 2 -1.7
v 1.7 2 -1.8
v 1.7 2 -1.9
v 1.7 2 -2.1
v 1.7 2 -2.2
v 1.7 2.1 -1.8
v 1.7 2.1 -1.9
v 1.7 2.1 -2
v 1.7 2.1 -2.1
v 1.7 2.1 -2.2
v 1.7 2.2 -1.8
v 1.7 2.2 -1.9
v 1.7 2.2 -2
v 1.7 2.2 -2.1
v 1.7 2.2 -2.2
v 1.7 2.3 -1.7
v 1.7 2.3 -1.8
v 1.7 2.3 -1.9
v 1.8 2 -1.6
v 1.8 2 -1.7
v 1.8 2 -2.2
v 1.8 2 -2.3
v 1.8 2.1 -1.6
v 1.8 2.1 -1.7
v 1.8 2.1 -2
v 1.8 2.1 -2.1
v 1.8 2.1 -2.2
v 1.8 2.2 -2
v 1.8 2.2 -2.1
v 1.8 2.2 -2.2
v 1.8 2.2 -2.3
v 1.8 2.3 -2
v 1.8 2.3 -2.1
v 1.8 2.4 -2.1
v 1.8 2.4 -2.2
v 1.9 2 -2.3
v 1.9 2 -2.4
v 1.9 2.1 -1.9
v 1.9 2.1 -2
v 1.9 2.1 -2.3
v 1.9 2.1 -2.4
v 1.9 2.2 -1.9
v 1.9 2.2 -2
v 2 2 -1.5
v 2 2 -1.6
v 2 2 -1.7
v 2 2.1 -1.5
v 2 2.1 -1.6
v 2 2.1 -1.7
v 2 2.2 -1.8
v 2 2.2 -1.9
v 2 2.3 -1.8
v 2 2.3 -1.9
v 2.1 2.1 -1.7
v 2.1 2.1 -1.8
v 2.1 2.1 -2
v 2.1 2.1 -2.1
v 2.1 2.2 -1.7
v 2.1 2.2 -1.8
v 2.1 2.2 -2
v 2.1 2.2 -2.1
v 1.8 2.1 -1.9
v 1.8 2.1 -2
v 1.8 2.2 -1.7
v 1.8 2.2 -1.8
v 1.8 2.2 -1.9
v 1.8 2.2 -2
v 1.8 2.3 -1.7
v 1.8 2.3 -1.8
v 1.9 2 -1.6
v 1.9 2 -1.7
v 1.9 2.1 -1.6
v 1.9 2.1 -1.7
v 1.9 2.2 -1.8
v 1.9 2.2 -1.9
v 1.9 2.3 -1.8
v 1.9 2.3 -1.9
v 1.9 2.3 -2.1
v 1.9 2.3 -2.2
v 1.9 2.4 -2.1
v 1.9 2.4 -2.2
v 2 2 -2.3
v 2 2 -2.4
v 2 2.1 -1.7
v 2 2.1 -1.8
v 2 2.1 -2
v 2 2.1 -2.1
v 2 2.1 -2.2
v 2 2.1 -2.3
v 2 2.1 -2.4
v 2 2.2 -1.7
v 2 2.2 -1.8
v 2 2.2 -2
v 2 2.2 -2.1
v 2 2.2 -2.2
v 2 2.3 -2
v 2 2.3 -2.1
v 2 2.3 -2.2
v 2.1 2 -1.5
v 2.1 2 -1.6
v 2.1 2.1 -1.5
v 2.1 2.1 -1.6
v 2.1 2.1 -1.8
v 2.1 2.1 -1.9
v 2.1 2.1 -2.2
v 2.1 2.1 -2.3
v 2.1 2.2 -1.8
v 2.1 2.2 -1.9
v 2.1 2.2 -2.2
v 2.1 2.2 -2.3
v 2.1 2.3 -1.8
v 2.1 2.3 -1.9
v 2.2 2 -1.6
v 2.2 2 -1.7
v 2.2 2 -1.8
v 2.2 2 -1.9
v 2.2 2 -2.1
v 2.2 2 -2.3
v 2.2 2.1 -1.6
v 2.2 2.1 -1.7
v 2.2 2.1 -1.8
v 2.2 2.1 -1.9
v 2.2 2.1 -2
v 2.2 2.1 -2.1
v 2.2 2.1 -2.3
v 2.2 2.2 -1.7
v 2.2 2.2 -1.8
v 2.2 2.2 -1.9
v 2.2 2.2 -2
v 2.2 2.2 -2.1
v 2 2 -1.5
v 2 2.1 -1.5
v 2.1 2 -1.5
v 2.1 2.1 -1.5
v 1.8 2 -1.6
v 1.8 2.1 -1.6
v 1.9 2 -1.6
v 1.9 2.1 -1.6
v 2.1 2 -1.6
v 2.1 2.1 -1.6
v 2.2 2 -1.6
v 2.2 2.1 -1.6
v 1.7 2 -1.7
v 1.7 2.3 -1.7
v 1.8 2 -1.7
v 1.8 2.1 -1.7
v 1.8 2.2 -1.7
v 1.8 2.3 -1.7
v 1.9 2 -1.7
v 1.9 2.1 -1.7
v 1.9 2.2 -1.7
v 2 2 -1.7
v 2 2.1 -1.7
v 2 2.2 -1.7
v 2.1 2.1 -1.7
v 2.1 2.2 -1.7
v 2.2 2.1 -1.7
v 2.2 2.2 -1.7
v 1.8 2.2 -1.8
v 1.8 2.3 -1.8
v 1.9 2.2 -1.8
v 1.9 2.3 -1.8
v 2 2.1 -1.8
v 2 2.2 -1.8
v 2 2.3 -1.8
v 2.1 2.1 -1.8
v 2.1 2.2 -1.8
v 2.1 2.3 -1.8
v 1.6 2 -1.9
v 1.6 2.1 -1.9
v 1.7 2 -1.9
v 1.7 2.1 -1.9
v 2.1 2.1 -1.9
v 2.1 2.2 -1.9
v 2.2 2.1 -1.9
v 2.2 2.2 -1.9
v 1.8 2.1 -2
v 1.8 2.2 -2
v 1.8 2.3 -2
v 1.9 2.1 -2
v 1.9 2.2 -2
v 2 2.2 -2
v 2 2.3 -2
v 1.7 2.1 -2.1
v 1.7 2.2 -2.1
v 1.8 2.1 -2.1
v 1.8 2.2 -2.1
v 1.8 2.3 -2.1
v 1.8 2.4 -2.1
v 1.9 2.3 -2.1
v 1.9 2.4 -2.1
v 2 2.1 -2.2
v 2 2.2 -2.2
v 2.1 2.1 -2.2
v 2.1 2.2 -2.2
v 2.1 2.1 -1.8
v 2.1 2.2 -1.8
v 2.2 2.1 -1.8
v 2.2 2.2 -1.8
v 1.7 2.2 -1.9
v 1.7 2.3 -1.9
v 1.8 2.1 -1.9
v 1.8 2.2 -1.9
v 1.8 2.3 -1.9
v 1.9 2.1 -1.9
v 1.9 2.2 -1.9
v 1.9 2.3 -1.9
v 2 2.2 -1.9
v 2 2.3 -1.9
v 2.1 2.2 -1.9
v 2.1 2.3 -1.9
v 1.7 2.1 -2
v 1.7 2.2 -2
v 1.8 2.1 -2
v 1.8 2.2 -2
v 2 2.1 -2
v 2 2.2 -2
v 2.1 2.1 -2
v 2.1 2.2 -2
v 1.6 2 -2.1
v 1.6 2.1 -2.1
v 1.7 2 -2.1
v 1.7 2.1 -2.1
v 2.1 2.1 -2.1
v 2.1 2.2 -2.1
v 2.2 2.1 -2.1
v 2.2 2.2 -2.1
v 1.7 2 -2.2
v 1.7 2.1 -2.2
v 1.7 2.2 -2.2
v 1.8 2 -2.2
v 1.8 2.1 -2.2
v 1.8 2.2 -2.2
v 1.8 2.4 -2.2
v 1.9 2.2 -2.2
v 1.9 2.3 -2.2
v 1.9 2.4 -2.2
v 2 2.2 -2.2
v 2 2.3 -2.2
v 1.8 2 -2.3
v 1.8 2.2 -2.3
v 1.9 2 -2.3
v 1.9 2.1 -2.3
v 1.9 2.2 -2.3
v 2 2 -2.3
v 2 2.1 -2.3
v 2 2.2 -2.3
v 2.1 2 -2.3
v 2.1 2.1 -2.3
v 2.1 2.2 -2.3
v 2.2 2 -2.3
v 2.2 2.1 -2.3
v 1.9 2 -2.4
v 1.9 2.1 -2.4
v 2 2 -2.4
v 2 2.1 -2.4
v 2 2 -1.5
v 2.1 2 -1.5
v 1.8 2 -1.6
v 1.9 2 -1.6
v 2 2 -1.6
v 2.1 2 -1.6
v 2.2 2 -1.6
v 1.7 2 -1.7
v 1.8 2 -1.7
v 1.9 2 -1.7
v 2 2 -1.7
v 2.1 2 -1.7
v 2.2 2 -1.7
v 1.7 2 -1.8
v 1.8 2 -1.8
v 1.9 2 -1.8
v 2 2 -1.8
v 2.1 2 -1.8
v 2.2 2 -1.8
v 1.6 2 -1.9
v 1.7 2 -1.9
v 1.8 2 -1.9
v 1.9 2 -1.9
v 2.1 2 -1.9
v 2.2 2 -1.9
v 1.6 2 -2
v 1.7 2 -2
v 1.8 2 -2
v 1.9 2 -2
v 2 2 -2
v 2.1 2 -2
v 1.6 2 -2.1
v 1.7 2 -2.1
v 1.8 2 -2.1
v 2 2 -2.1
v 2.1 2 -2.1
v 2.2 2 -2.1
v 1.7 2 -2.2
v 1.8 2 -2.2
v 1.9 2 -2.2
v 2 2 -2.2
v 2.1 2 -2.2
v 1.8 2 -2.3
v 1.9 2 -2.3
v 2 2 -2.3
v 2.1 2 -2.3
v 2.2 2 -2.3
v 1.9 2 -2.4
v 2 2 -2.4
v 2 2.1 -1.5
v 2.1 2.1 -1.5
v 1.8 2.1 -1.6
v 1.9 2.1 -1.6
v 2 2.1 -1.6
v 2.1 2.1 -1.6
v 2.2 2.1 -1.6
v 1.8 2.1 -1.7
v 1.9 2.1 -1.7
v 2 2.1 -1.7
v 2.1 2.1 -1.7
v 2.2 2.1 -1.7
v 2 2.1 -1.8
v 2.1 2.1 -1.8
v 2.2 2.1 -1.8
v 1.6 2.1 -1.9
v 1.7 2.1 -1.9
v 1.8 2.1 -1.9
v 1.9 2.1 -1.9
v 2.1 2.1 -1.9
v 2.2 2.1 -1.9
v 1.6 2.1 -2
v 1.7 2.1 -2
v 1.8 2.1 -2
v 1.9 2.1 -2
v 2 2.1 -2
v 2.1 2.1 -2
v 1.6 2.1 -2.1
v 1.7 2.1 -2.1
v 1.8 2.1 -2.1
v 2 2.1 -2.1
v 2.1 2.1 -2.1
v 2.2 2.1 -2.1
v 2 2.1 -2.2
v 2.1 2.1 -2.2
v 1.9 2.1 -2.3
v 2 2.1 -2.3
v 2.1 2.1 -2.3
v 2.2 2.1 -2.3
v 1.9 2.1 -2.4
v 2 2.1 -2.4
v 1.8 2.2 -1.7
v 1.9 2.2 -1.7
v 2 2.2 -1.7
v 2.1 2.2 -1.7
v 2.2 2.2 -1.7
v 1.8 2.2 -1.8
v 1.9 2.2 -1.8
v 2 2.2 -1.8
v 2.1 2.2 -1.8
v 2.2 2.2 -1.8
v 1.7 2.2 -1.9
v 1.8 2.2 -1.9
v 1.9 2.2 -1.9
v 2 2.2 -1.9
v 2.1 2.2 -1.9
v 2.2 2.2 -1.9
v 1.7 2.2 -2
v 1.8 2.2 -2
v 1.9 2.2 -2
v 2 2.2 -2
v 2.1 2.2 -2
v 2.2 2.2 -2
v 1.7 2.2 -2.1
v 1.8 2.2 -2.1
v 2.1 2.2 -2.1
v 2.2 2.2 -2.1
v 1.7 2.2 -2.2
v 1.8 2.2 -2.2
v 1.9 2.2 -2.2
v 2 2.2 -2.2
v 2.1 2.2 -2.2
v 1.8 2.2 -2.3
v 1.9 2.2 -2.3
v 2 2.2 -2.3
v 2.1 2.2 -2.3
v 1.7 2.3 -1.7
v 1.8 2.3 -1.7
v 1.7 2.3 -1.8
v 1.8 2.3 -1.8
v 1.9 2.3 -1.8
v 2 2.3 -1.8
v 2.1 2.3 -1.8
v 1.7 2.3 -1.9
v 1.8 2.3 -1.9
v 1.9 2.3 -1.9
v 2 2.3 -1.9
v 2.1 2.3 -1.9
v 1.8 2.3 -2
v 2 2.3 -2
v 1.8 2.3 -2.1
v 1.9 2.3 -2.1
v 2 2.3 -2.1
v 1.9 2.3 -2.2
v 2 2.3 -2.2
v 1.8 2.4 -2.1
v 1.9 2.4 -2.1
v 1.8 2.4 -2.2
v 1.9 2.4 -2.2

# faces
f 4/8/1 2/8/1 1/8/1
f 5/6/1 3/6/1 2/6/1
f 5/8/1 2/8/1 4/8/1
f 6/6/1 3/6/1 5/6/1
f 12/2/1 8/2/1 7/2/1
f 12/6/1 9/6/1 8/6/1
f 13/6/1 9/6/1 12/6/1
f 15/9/1 11/9/1 10/9/1
f 16/9/1 11/9/1 15/9/1
f 17/2/1 12/2/1 7/2/1
f 17/9/1 13/9/1 12/9/1
f 18/6/1 14/6/1 13/6/1
f 18/9/1 13/9/1 17/9/1
f 19/6/1 14/6/1 18/6/1
f 20/8/1 16/8/1 15/8/1
f 21/8/1 16/8/1 20/8/1
f 22/2/1 17/2/1 7/2/1
f 23/8/1 18/8/1 17/8/1
f 23/2/1 17/2/1 22/2/1
f 24/8/1 18/8/1 23/8/1
f 29/8/1 26/8/1 25/8/1
f 30/8/1 26/8/1 29/8/1
f 33/5/1 28/5/1 27/5/1
f 34/7/1 32/7/1 31/7/1
f 35/7/1 32/7/1 34/7/1
f 36/5/1 28/5/1 33/5/1
f 37/5/1 28/5/1 36/5/1
f 38/7/1 35/7/1 34/7/1
f 39/2/1 36/2/1 35/2/1
f 39/7/1 35/7/1 38/7/1
f 40/2/1 36/2/1 39/2/1
f 41/2/1 36/2/1 40/2/1
f 46/9/1 43/9/1 42/9/1
f 47/9/1 43/9/1 46/9/1
f 48/6/1 45/6/1 44/6/1
f 49/6/1 45/6/1 48/6/1
f 53/8/1 51/8/1 50/8/1
f 54/6/1 52/6/1 51/6/1
f 54/8/1 51/8/1 53/8/1
f 55/6/1 52/6/1 54/6/1
f 58/6/1 57/6/1 56/6/1
f 59/6/1 57/6/1 58/6/1
f 64/2/1 61/2/1 60/2/1
f 65/2/1 61/2/1 64/2/1
f 66/6/1 63/6/1 62/6/1
f 67/6/1 63/6/1 66/6/1
f 68/6/2 69/6/2 72/6/2
f 72/6/2 69/6/2 73/6/2
f 70/2/2 71/2/2 74/2/2
f 74/2/2 71/2/2 75/2/2
f 76/8/2 77/8/2 78/8/2
f 78/8/2 77/8/2 79/8/2
f 80/3/2 81/3/2 82/3/2
f 82/3/2 81/3/2 83/3/2
f 84/2/2 85/2/2 86/2/2
f 86/2/2 85/2/2 87/2/2
f 88/9/2 89/9/2 95/9/2
f 95/9/2 89/9/2 96/9/2
f 90/6/2 91/6/2 97/6/2
f 97/6/2 91/6/2 98/6/2
f 92/7/2 93/7/2 99/7/2
f 93/2/2 94/2/2 100/2/2
f 99/7/2 93/7/2 100/7/2
f 100/2/2 94/2/2 101/2/2
f 99/7/2 100/7/2 102/7/2
f 100/6/2 101/6/2 103/6/2
f 102/7/2 100/7/2 103/7/2
f 103/6/2 101/6/2 104/6/2
f 105/8/2 106/8/2 107/8/2
f 107/8/2 106/8/2 108/8/2
f 109/3/2 110/3/2 113/3/2
f 113/3/2 110/3/2 114/3/2
f 111/5/2 112/5/2 115/5/2
f 115/5/2 112/5/2 116/5/2
f 113/6/2 114/6/2 117/6/2
f 117/6/2 114/6/2 118/6/2
f 119/3/2 120/3/2 125/3/2
f 120/2/2 121/2/2 126/2/2
f 125/3/2 120/3/2 126/3/2
f 121/3/2 122/3/2 127/3/2
f 126/2/2 121/2/2 127/2/2
f 122/1/2 123/1/2 128/1/2
f 127/3/2 122/3/2 128/3/2
f 128/1/2 123/1/2 129/1/2
f 123/6/2 124/6/2 130/6/2
f 129/1/2 123/1/2 130/1/2
f 130/6/2 124/6/2 131/6/2
f 126/2/2 127/2/2 132/2/2
f 132/2/2 127/2/2 133/2/2
f 128/3/2 129/3/2 134/3/2
f 129/6/2 130/6/2 135/6/2
f 134/3/2 129/3/2 135/3/2
f 135/6/2 130/6/2 136/6/2
f 139/8/3 138/8/3 137/8/3
f 140/8/3 138/8/3 139/8/3
f 143/8/3 142/8/3 141/8/3
f 144/8/3 142/8/3 143/8/3
f 147/3/3 146/3/3 145/3/3
f 148/3/3 146/3/3 147/3/3
f 151/2/3 150/2/3 149/2/3
f 152/2/3 150/2/3 151/2/3
f 153/2/3 150/2/3 152/2/3
f 154/2/3 150/2/3 153/2/3
f 156/8/3 153/8/3 152/8/3
f 157/8/3 153/8/3 156/8/3
f 158/1/3 156/1/3 155/1/3
f 159/6/3 157/6/3 156/6/3
f 159/1/3 156/1/3 158/1/3
f 160/6/3 157/6/3 159/6/3
f 163/2/3 162/2/3 161/2/3
f 164/2/3 162/2/3 163/2/3
f 167/3/3 166/3/3 165/3/3
f 168/3/3 166/3/3 167/3/3
f 172/3/3 170/3/3 169/3/3
f 173/6/3 171/6/3 170/6/3
f 173/3/3 170/3/3 172/3/3
f 174/6/3 171/6/3 173/6/3
f 177/8/3 176/8/3 175/8/3
f 178/8/3 176/8/3 177/8/3
f 181/3/3 180/3/3 179/3/3
f 182/3/3 180/3/3 181/3/3
f 186/7/3 184/7/3 183/7/3
f 186/7/3 185/7/3 184/7/3
f 187/7/3 185/7/3 186/7/3
f 188/7/3 185/7/3 187/7/3
f 189/7/3 185/7/3 188/7/3
f 192/8/3 191/8/3 190/8/3
f 193/8/3 191/8/3 192/8/3
f 196/2/3 195/2/3 194/2/3
f 197/2/3 195/2/3 196/2/3
f 200/5/3 199/5/3 198/5/3
f 201/5/3 199/5/3 200/5/3
f 202/2/4 203/2/4 204/2/4
f 204/2/4 203/2/4 205/2/4
f 206/8/4 207/8/4 209/8/4
f 209/8/4 207/8/4 210/8/4
f 208/6/4 209/6/4 211/6/4
f 209/3/4 210/3/4 212/3/4
f 211/6/4 209/6/4 212/6/4
f 212/3/4 210/3/4 213/3/4
f 214/6/4 215/6/4 216/6/4
f 216/6/4 215/6/4 217/6/4
f 218/6/4 219/6/4 220/6/4
f 220/6/4 219/6/4 221/6/4
f 222/2/4 223/2/4 224/2/4
f 224/2/4 223/2/4 225/2/4
f 226/6/4 227/6/4 228/6/4
f 228/6/4 227/6/4 229/6/4
f 230/6/4 231/6/4 232/6/4
f 232/6/4 231/6/4 233/6/4
f 234/9/4 235/9/4 237/9/4
f 235/8/4 236/8/4 238/8/4
f 237/9/4 235/9/4 238/9/4
f 238/8/4 236/8/4 239/8/4
f 239/2/4 240/2/4 241/2/4
f 241/2/4 240/2/4 242/2/4
f 242/2/4 240/2/4 243/2/4
f 241/6/4 242/6/4 244/6/4
f 244/6/4 242/6/4 245/6/4
f 246/5/4 247/5/4 248/5/4
f 248/5/4 247/5/4 249/5/4
f 249/5/4 247/5/4 250/5/4
f 249/6/4 250/6/4 252/6/4
f 252/6/4 250/6/4 253/6/4
f 251/9/4 252/9/4 254/9/4
f 252/5/4 253/5/4 255/5/4
f 254/9/4 252/9/4 255/9/4
f 255/5/4 253/5/4 256/5/4
f 254/6/4 255/6/4 257/6/4
f 257/6/4 255/6/4 258/6/4
f 259/9/4 260/9/4 261/9/4
f 261/9/4 260/9/4 262/9/4
f 267/8/5 264/8/5 263/8/5
f 268/8/5 264/8/5 267/8/5
f 271/8/5 266/8/5 265/8/5
f 272/8/5 266/8/5 271/8/5
f 273/6/5 268/6/5 267/6/5
f 274/3/5 269/3/5 268/3/5
f 274/6/5 268/6/5 273/6/5
f 275/3/5 269/3/5 274/3/5
f 276/2/5 271/2/5 270/2/5
f 277/9/5 272/9/5 271/9/5
f 277/2/5 271/2/5 276/2/5
f 278/1/5 273/1/5 272/1/5
f 278/9/5 272/9/5 277/9/5
f 279/4/5 274/4/5 273/4/5
f 279/1/5 273/1/5 278/1/5
f 280/2/5 275/2/5 274/2/5
f 280/4/5 274/4/5 279/4/5
f 281/2/5 275/2/5 280/2/5
f 283/6/5 277/6/5 276/6/5
f 284/9/5 278/9/5 277/9/5
f 284/9/5 279/9/5 278/9/5
f 284/6/5 277/6/5 283/6/5
f 284/9/5 280/9/5 279/9/5
f 285/9/5 280/9/5 284/9/5
f 286/3/5 281/3/5 280/3/5
f 286/9/5 280/9/5 285/9/5
f 287/3/5 281/3/5 286/3/5
f 288/8/5 283/8/5 282/8/5
f 289/9/5 284/9/5 283/9/5
f 289/8/5 283/8/5 288/8/5
f 290/8/5 285/8/5 284/8/5
f 290/9/5 284/9/5 289/9/5
f 291/9/5 286/9/5 285/9/5
f 291/8/5 285/8/5 290/8/5
f 292/9/5 286/9/5 291/9/5
f 293/1/5 287/1/5 286/1/5
f 293/9/5 286/9/5 292/9/5
f 294/6/5 289/6/5 288/6/5
f 294/6/5 290/6/5 289/6/5
f 295/6/5 290/6/5 294/6/5
f 296/7/5 292/7/5 291/7/5
f 296/6/5 290/6/5 295/6/5
f 296/7/5 291/7/5 290/7/5
f 297/6/5 293/6/5 292/6/5
f 297/7/5 292/7/5 296/7/5
f 298/1/5 287/1/5 293/1/5
f 298/6/5 293/6/5 297/6/5
f 299/1/5 287/1/5 298/1/5
f 300/9/5 296/9/5 295/9/5
f 301/7/5 297/7/5 296/7/5
f 301/9/5 296/9/5 300/9/5
f 302/7/5 297/7/5 301/7/5
f 303/2/5 298/2/5 297/2/5
f 303/7/5 297/7/5 302/7/5
f 304/6/5 299/6/5 298/6/5
f 304/2/5 298/2/5 303/2/5
f 305/5/5 302/5/5 301/5/5
f 306/9/5 303/9/5 302/9/5
f 306/5/5 302/5/5 305/5/5
f 306/9/5 304/9/5 303/9/5
f 307/9/5 304/9/5 306/9/5
f 308/6/5 299/6/5 304/6/5
f 308/9/5 304/9/5 307/9/5
f 309/6/5 299/6/5 308/6/5
f 310/9/5 307/9/5 306/9/5
f 311/9/5 307/9/5 310/9/5
f 312/8/6 313/8/6 316/8/6
f 316/8/6 313/8/6 317/8/6
f 314/8/6 315/8/6 319/8/6
f 319/8/6 315/8/6 320/8/6
f 316/6/6 317/6/6 321/6/6
f 317/3/6 318/3/6 322/3/6
f 321/6/6 317/6/6 322/6/6
f 322/3/6 318/3/6 323/3/6
f 321/4/6 322/4/6 324/4/6
f 324/4/6 322/4/6 325/4/6
f 325/3/6 326/3/6 331/3/6
f 331/3/6 326/3/6 332/3/6
f 327/8/6 328/8/6 333/8/6
f 333/8/6 328/8/6 334/8/6
f 329/8/6 330/8/6 335/8/6
f 335/8/6 330/8/6 336/8/6
f 333/6/6 334/6/6 339/6/6
f 334/6/6 335/6/6 339/6/6
f 339/6/6 335/6/6 340/6/6
f 340/6/6 335/6/6 341/6/6
f 337/6/6 338/6/6 342/6/6
f 342/6/6 338/6/6 343/6/6
f 342/2/6 343/2/6 345/2/6
f 343/6/6 344/6/6 346/6/6
f 345/2/6 343/2/6 346/2/6
f 346/6/6 344/6/6 349/6/6
f 349/6/6 344/6/6 350/6/6
f 347/9/6 348/9/6 351/9/6
f 351/9/6 348/9/6 352/9/6
f 353/8/6 354/8/6 358/8/6
f 354/6/6 355/6/6 359/6/6
f 358/8/6 354/8/6 359/8/6
f 359/6/6 355/6/6 360/6/6
f 356/2/6 357/2/6 361/2/6
f 361/2/6 357/2/6 362/2/6
f 359/1/6 360/1/6 365/1/6
f 365/1/6 360/1/6 366/1/6
f 363/6/6 364/6/6 369/6/6
f 369/6/6 364/6/6 370/6/6
f 365/6/6 366/6/6 371/6/6
f 366/2/6 367/2/6 372/2/6
f 371/6/6 366/6/6 372/6/6
f 367/3/6 368/3/6 373/3/6
f 372/2/6 367/2/6 373/2/6
f 373/3/6 368/3/6 374/3/6
f 373/6/6 374/6/6 377/6/6
f 377/6/6 374/6/6 378/6/6
f 375/8/6 376/8/6 379/8/6
f 379/8/6 376/8/6 380/8/6
f 380/5/6 381/5/6 384/5/6
f 381/6/6 382/6/6 385/6/6
f 384/5/6 381/5/6 385/5/6
f 382/5/6 383/5/6 386/5/6
f 385/6/6 382/6/6 386/6/6
f 386/5/6 383/5/6 387/5/6
f 388/2/6 389/2/6 390/2/6
f 390/2/6 389/2/6 391/2/6
f 390/8/6 391/8/6 395/8/6
f 391/3/6 392/3/6 396/3/6
f 395/8/6 391/8/6 396/8/6
f 396/3/6 392/3/6 397/3/6
f 393/6/6 394/6/6 398/6/6
f 398/6/6 394/6/6 399/6/6
f 400/7/6 401/7/6 402/7/6
f 402/7/6 401/7/6 403/7/6
f 403/7/6 401/7/6 404/7/6
f 403/6/6 404/6/6 405/6/6
f 405/6/6 404/6/6 406/6/6
f 407/2/6 408/2/6 409/2/6
f 409/2/6 408/2/6 410/2/6
