# MagicaVoxel @ Ephtracy

# group
o 

# material
mtllib building1.mtl
usemtl palette

# normals
vn -1 0 0
vn 1 0 0
vn 0 0 1
vn 0 0 -1
vn 0 -1 0
vn 0 1 0

# texcoords
vt 0.306641 0.5
vt 0.322266 0.5
vt 0.373047 0.5
vt 0.537109 0.5
vt 0.978516 0.5

# verts
v 0.4 2 -0.8
v 0.4 2 -3.2
v 0.4 2.1 -0.8
v 0.4 2.1 -3.2
v 0.5 2.1 -0.8
v 0.5 2.1 -3.1
v 0.5 2.2 -0.8
v 0.5 2.2 -3.1
v 0.5 3.5 -1.1
v 0.5 3.5 -2.8
v 0.5 3.6 -1.1
v 0.5 3.6 -2.8
v 0.6 2.2 -1.2
v 0.6 2.2 -2.7
v 0.6 3.5 -1.2
v 0.6 3.5 -2.7
v 0.6 3.6 -1.1
v 0.6 3.6 -2.8
v 0.6 3.7 -1.1
v 0.6 3.7 -2.8
v 0.7 3.7 -1.1
v 0.7 3.7 -2.8
v 0.7 3.8 -1.1
v 0.7 3.8 -2.8
v 0.8 3.8 -1.1
v 0.8 3.8 -2.8
v 0.8 3.9 -1.1
v 0.8 3.9 -2.8
v 0.9 3.9 -1.1
v 0.9 3.9 -2.8
v 0.9 4 -1.1
v 0.9 4 -2.8
v 1 4 -1.1
v 1 4 -2.8
v 1 4.1 -1.1
v 1 4.1 -2.8
v 1.1 4.1 -1.1
v 1.1 4.1 -2.8
v 1.1 4.2 -1.1
v 1.1 4.2 -2.8
v 1.2 4.2 -1.1
v 1.2 4.2 -2.8
v 1.2 4.3 -1.1
v 1.2 4.3 -2.8
v 1.3 2.2 -1.3
v 1.3 2.2 -1.4
v 1.3 2.7 -1.3
v 1.3 2.7 -1.4
v 1.3 4.3 -1.1
v 1.3 4.3 -2.8
v 1.3 4.4 -1.1
v 1.3 4.4 -2.8
v 1.4 4.4 -1.1
v 1.4 4.4 -2.8
v 1.4 4.5 -1.1
v 1.4 4.5 -2.8
v 1.6 3 -1.3
v 1.6 3 -1.4
v 1.6 3.4 -1.3
v 1.6 3.4 -1.4
v 1.7 2.2 -1
v 1.7 2.2 -1.3
v 1.7 2.2 -2.7
v 1.7 2.2 -3.1
v 1.7 4.4 -1.1
v 1.7 4.4 -1.3
v 1.7 4.4 -2.7
v 1.7 4.4 -2.8
v 1.7 4.5 -1.1
v 1.7 4.5 -2.8
v 1.7 6 -1
v 1.7 6 -3.1
v 2.4 2.4 -1.1
v 2.4 2.4 -1.2
v 2.4 3.1 -1.1
v 2.4 3.1 -1.2
v 2.4 3.3 -1.1
v 2.4 3.3 -1.2
v 2.4 4 -1.1
v 2.4 4 -1.2
v 2.4 4.2 -1.1
v 2.4 4.2 -1.2
v 2.4 4.9 -1.1
v 2.4 4.9 -1.2
v 2.4 5 -1.1
v 2.4 5 -1.2
v 2.4 5.7 -1.1
v 2.4 5.7 -1.2
v 2.9 2.2 -1.1
v 2.9 2.2 -1.2
v 2.9 2.7 -1.1
v 2.9 2.7 -1.2
v 3 3.3 -1.1
v 3 3.3 -1.2
v 3 4 -1.1
v 3 4 -1.2
v 3 4.2 -1.1
v 3 4.2 -1.2
v 3 4.9 -1.1
v 3 4.9 -1.2
v 3 5 -1.1
v 3 5 -1.2
v 3 5.7 -1.1
v 3 5.7 -1.2
v 3.1 2.2 -1
v 3.1 2.2 -1.1
v 3.1 6 -1
v 3.1 6 -1.1
v 0.6 3.5 -1.1
v 0.6 3.5 -1.2
v 0.6 3.5 -2.7
v 0.6 3.5 -2.8
v 0.6 3.6 -1.1
v 0.6 3.6 -1.2
v 0.6 3.6 -2.7
v 0.6 3.6 -2.8
v 0.7 3.6 -1.1
v 0.7 3.6 -1.2
v 0.7 3.6 -2.7
v 0.7 3.6 -2.8
v 0.7 3.7 -1.1
v 0.7 3.7 -1.2
v 0.7 3.7 -2.7
v 0.7 3.7 -2.8
v 0.8 2.2 -1.2
v 0.8 2.2 -1.3
v 0.8 3.7 -1.1
v 0.8 3.7 -1.2
v 0.8 3.7 -1.3
v 0.8 3.7 -2.7
v 0.8 3.7 -2.8
v 0.8 3.8 -1.1
v 0.8 3.8 -1.3
v 0.8 3.8 -2.7
v 0.8 3.8 -2.8
v 0.9 3 -1.3
v 0.9 3 -1.4
v 0.9 3.4 -1.3
v 0.9 3.4 -1.4
v 0.9 3.8 -1.1
v 0.9 3.8 -1.3
v 0.9 3.8 -2.7
v 0.9 3.8 -2.8
v 0.9 3.9 -1.1
v 0.9 3.9 -1.3
v 0.9 3.9 -2.7
v 0.9 3.9 -2.8
v 1 2.2 -1.3
v 1 2.2 -1.4
v 1 2.7 -1.3
v 1 2.7 -1.4
v 1 3.9 -1.1
v 1 3.9 -1.3
v 1 3.9 -2.7
v 1 3.9 -2.8
v 1 4 -1.1
v 1 4 -1.3
v 1 4 -2.7
v 1 4 -2.8
v 1.1 4 -1.1
v 1.1 4 -1.3
v 1.1 4 -2.7
v 1.1 4 -2.8
v 1.1 4.1 -1.1
v 1.1 4.1 -1.3
v 1.1 4.1 -2.7
v 1.1 4.1 -2.8
v 1.2 4.1 -1.1
v 1.2 4.1 -1.3
v 1.2 4.1 -2.7
v 1.2 4.1 -2.8
v 1.2 4.2 -1.1
v 1.2 4.2 -1.3
v 1.2 4.2 -2.7
v 1.2 4.2 -2.8
v 1.3 4.2 -1.1
v 1.3 4.2 -1.3
v 1.3 4.2 -2.7
v 1.3 4.2 -2.8
v 1.3 4.3 -1.1
v 1.3 4.3 -1.3
v 1.3 4.3 -2.7
v 1.3 4.3 -2.8
v 1.4 4.3 -1.1
v 1.4 4.3 -1.3
v 1.4 4.3 -2.7
v 1.4 4.3 -2.8
v 1.4 4.4 -1.1
v 1.4 4.4 -1.3
v 1.4 4.4 -2.7
v 1.4 4.4 -2.8
v 1.9 2.2 -1
v 1.9 2.2 -1.1
v 1.9 6 -1
v 1.9 6 -1.1
v 2 2.4 -1.1
v 2 2.4 -1.2
v 2 3.1 -1.1
v 2 3.1 -1.2
v 2 3.3 -1.1
v 2 3.3 -1.2
v 2 4 -1.1
v 2 4 -1.2
v 2 4.2 -1.1
v 2 4.2 -1.2
v 2 4.9 -1.1
v 2 4.9 -1.2
v 2 5 -1.1
v 2 5 -1.2
v 2 5.7 -1.1
v 2 5.7 -1.2
v 2.6 2.2 -1.1
v 2.6 2.2 -1.2
v 2.6 2.7 -1.1
v 2.6 2.7 -1.2
v 2.6 3.3 -1.1
v 2.6 3.3 -1.2
v 2.6 4 -1.1
v 2.6 4 -1.2
v 2.6 4.2 -1.1
v 2.6 4.2 -1.2
v 2.6 4.9 -1.1
v 2.6 4.9 -1.2
v 2.6 5 -1.1
v 2.6 5 -1.2
v 2.6 5.7 -1.1
v 2.6 5.7 -1.2
v 3.3 2.2 -1
v 3.3 2.2 -3.1
v 3.3 6 -1
v 3.3 6 -3.1
v 3.5 2.1 -0.8
v 3.5 2.1 -3.1
v 3.5 2.2 -0.8
v 3.5 2.2 -3.1
v 3.6 2 -0.8
v 3.6 2 -3.2
v 3.6 2.1 -0.8
v 3.6 2.1 -3.2
v 0.4 2 -0.8
v 0.4 2.1 -0.8
v 0.5 2.1 -0.8
v 0.5 2.2 -0.8
v 3.5 2.1 -0.8
v 3.5 2.2 -0.8
v 3.6 2 -0.8
v 3.6 2.1 -0.8
v 1.7 2.2 -1
v 1.7 6 -1
v 1.9 2.2 -1
v 1.9 6 -1
v 3.1 2.2 -1
v 3.1 6 -1
v 3.3 2.2 -1
v 3.3 6 -1
v 0.5 3.5 -1.1
v 0.5 3.6 -1.1
v 0.6 3.5 -1.1
v 0.6 3.6 -1.1
v 0.6 3.7 -1.1
v 0.7 3.6 -1.1
v 0.7 3.7 -1.1
v 0.7 3.8 -1.1
v 0.8 3.7 -1.1
v 0.8 3.8 -1.1
v 0.8 3.9 -1.1
v 0.9 3.8 -1.1
v 0.9 3.9 -1.1
v 0.9 4 -1.1
v 1 3.9 -1.1
v 1 4 -1.1
v 1 4.1 -1.1
v 1.1 4 -1.1
v 1.1 4.1 -1.1
v 1.1 4.2 -1.1
v 1.2 4.1 -1.1
v 1.2 4.2 -1.1
v 1.2 4.3 -1.1
v 1.3 4.2 -1.1
v 1.3 4.3 -1.1
v 1.3 4.4 -1.1
v 1.4 4.3 -1.1
v 1.4 4.4 -1.1
v 1.4 4.5 -1.1
v 1.7 4.4 -1.1
v 1.7 4.5 -1.1
v 1.9 2.2 -1.1
v 1.9 6 -1.1
v 2 2.4 -1.1
v 2 3.1 -1.1
v 2 3.3 -1.1
v 2 4 -1.1
v 2 4.2 -1.1
v 2 4.9 -1.1
v 2 5 -1.1
v 2 5.7 -1.1
v 2.4 2.4 -1.1
v 2.4 3.1 -1.1
v 2.4 3.3 -1.1
v 2.4 4 -1.1
v 2.4 4.2 -1.1
v 2.4 4.9 -1.1
v 2.4 5 -1.1
v 2.4 5.7 -1.1
v 2.6 2.2 -1.1
v 2.6 2.7 -1.1
v 2.6 3.3 -1.1
v 2.6 4 -1.1
v 2.6 4.2 -1.1
v 2.6 4.9 -1.1
v 2.6 5 -1.1
v 2.6 5.7 -1.1
v 2.9 2.2 -1.1
v 2.9 2.7 -1.1
v 3 3.3 -1.1
v 3 4 -1.1
v 3 4.2 -1.1
v 3 4.9 -1.1
v 3 5 -1.1
v 3 5.7 -1.1
v 3.1 2.2 -1.1
v 3.1 6 -1.1
v 0.6 2.2 -1.2
v 0.6 3.5 -1.2
v 0.6 3.6 -1.2
v 0.7 3.6 -1.2
v 0.7 3.7 -1.2
v 0.8 2.2 -1.2
v 0.8 3.7 -1.2
v 2 2.4 -1.2
v 2 3.1 -1.2
v 2 3.3 -1.2
v 2 4 -1.2
v 2 4.2 -1.2
v 2 4.9 -1.2
v 2 5 -1.2
v 2 5.7 -1.2
v 2.4 2.4 -1.2
v 2.4 3.1 -1.2
v 2.4 3.3 -1.2
v 2.4 4 -1.2
v 2.4 4.2 -1.2
v 2.4 4.9 -1.2
v 2.4 5 -1.2
v 2.4 5.7 -1.2
v 2.6 2.2 -1.2
v 2.6 2.7 -1.2
v 2.6 3.3 -1.2
v 2.6 4 -1.2
v 2.6 4.2 -1.2
v 2.6 4.9 -1.2
v 2.6 5 -1.2
v 2.6 5.7 -1.2
v 2.9 2.2 -1.2
v 2.9 2.7 -1.2
v 3 3.3 -1.2
v 3 4 -1.2
v 3 4.2 -1.2
v 3 4.9 -1.2
v 3 5 -1.2
v 3 5.7 -1.2
v 0.8 2.2 -1.3
v 0.8 3.7 -1.3
v 0.8 3.8 -1.3
v 0.9 3 -1.3
v 0.9 3.4 -1.3
v 0.9 3.8 -1.3
v 0.9 3.9 -1.3
v 1 2.2 -1.3
v 1 2.7 -1.3
v 1 3.9 -1.3
v 1 4 -1.3
v 1.1 4 -1.3
v 1.1 4.1 -1.3
v 1.2 4.1 -1.3
v 1.2 4.2 -1.3
v 1.3 2.2 -1.3
v 1.3 2.7 -1.3
v 1.3 4.2 -1.3
v 1.3 4.3 -1.3
v 1.4 4.3 -1.3
v 1.4 4.4 -1.3
v 1.6 3 -1.3
v 1.6 3.4 -1.3
v 1.7 2.2 -1.3
v 1.7 4.4 -1.3
v 0.9 3 -1.4
v 0.9 3.4 -1.4
v 1 2.2 -1.4
v 1 2.7 -1.4
v 1.3 2.2 -1.4
v 1.3 2.7 -1.4
v 1.6 3 -1.4
v 1.6 3.4 -1.4
v 0.6 2.2 -2.7
v 0.6 3.5 -2.7
v 0.6 3.6 -2.7
v 0.7 3.6 -2.7
v 0.7 3.7 -2.7
v 0.8 3.7 -2.7
v 0.8 3.8 -2.7
v 0.9 3.8 -2.7
v 0.9 3.9 -2.7
v 1 3.9 -2.7
v 1 4 -2.7
v 1.1 4 -2.7
v 1.1 4.1 -2.7
v 1.2 4.1 -2.7
v 1.2 4.2 -2.7
v 1.3 4.2 -2.7
v 1.3 4.3 -2.7
v 1.4 4.3 -2.7
v 1.4 4.4 -2.7
v 1.7 2.2 -2.7
v 1.7 4.4 -2.7
v 0.5 3.5 -2.8
v 0.5 3.6 -2.8
v 0.6 3.5 -2.8
v 0.6 3.6 -2.8
v 0.6 3.7 -2.8
v 0.7 3.6 -2.8
v 0.7 3.7 -2.8
v 0.7 3.8 -2.8
v 0.8 3.7 -2.8
v 0.8 3.8 -2.8
v 0.8 3.9 -2.8
v 0.9 3.8 -2.8
v 0.9 3.9 -2.8
v 0.9 4 -2.8
v 1 3.9 -2.8
v 1 4 -2.8
v 1 4.1 -2.8
v 1.1 4 -2.8
v 1.1 4.1 -2.8
v 1.1 4.2 -2.8
v 1.2 4.1 -2.8
v 1.2 4.2 -2.8
v 1.2 4.3 -2.8
v 1.3 4.2 -2.8
v 1.3 4.3 -2.8
v 1.3 4.4 -2.8
v 1.4 4.3 -2.8
v 1.4 4.4 -2.8
v 1.4 4.5 -2.8
v 1.7 4.4 -2.8
v 1.7 4.5 -2.8
v 0.5 2.1 -3.1
v 0.5 2.2 -3.1
v 1.7 2.2 -3.1
v 1.7 6 -3.1
v 3.3 2.2 -3.1
v 3.3 6 -3.1
v 3.5 2.1 -3.1
v 3.5 2.2 -3.1
v 0.4 2 -3.2
v 0.4 2.1 -3.2
v 3.6 2 -3.2
v 3.6 2.1 -3.2
v 0.4 2 -0.8
v 3.6 2 -0.8
v 0.4 2 -3.2
v 3.6 2 -3.2
v 2.6 2.7 -1.1
v 2.9 2.7 -1.1
v 2.6 2.7 -1.2
v 2.9 2.7 -1.2
v 1 2.7 -1.3
v 1.3 2.7 -1.3
v 1 2.7 -1.4
v 1.3 2.7 -1.4
v 2 3.1 -1.1
v 2.4 3.1 -1.1
v 2 3.1 -1.2
v 2.4 3.1 -1.2
v 0.9 3.4 -1.3
v 1.6 3.4 -1.3
v 0.9 3.4 -1.4
v 1.6 3.4 -1.4
v 0.5 3.5 -1.1
v 0.6 3.5 -1.1
v 0.6 3.5 -1.2
v 0.6 3.5 -2.7
v 0.5 3.5 -2.8
v 0.6 3.5 -2.8
v 0.6 3.6 -1.1
v 0.7 3.6 -1.1
v 0.6 3.6 -1.2
v 0.7 3.6 -1.2
v 0.6 3.6 -2.7
v 0.7 3.6 -2.7
v 0.6 3.6 -2.8
v 0.7 3.6 -2.8
v 0.7 3.7 -1.1
v 0.8 3.7 -1.1
v 0.7 3.7 -1.2
v 0.8 3.7 -1.2
v 0.7 3.7 -2.7
v 0.8 3.7 -2.7
v 0.7 3.7 -2.8
v 0.8 3.7 -2.8
v 0.8 3.8 -1.1
v 0.9 3.8 -1.1
v 0.8 3.8 -1.3
v 0.9 3.8 -1.3
v 0.8 3.8 -2.7
v 0.9 3.8 -2.7
v 0.8 3.8 -2.8
v 0.9 3.8 -2.8
v 0.9 3.9 -1.1
v 1 3.9 -1.1
v 0.9 3.9 -1.3
v 1 3.9 -1.3
v 0.9 3.9 -2.7
v 1 3.9 -2.7
v 0.9 3.9 -2.8
v 1 3.9 -2.8
v 1 4 -1.1
v 1.1 4 -1.1
v 2 4 -1.1
v 2.4 4 -1.1
v 2.6 4 -1.1
v 3 4 -1.1
v 2 4 -1.2
v 2.4 4 -1.2
v 2.6 4 -1.2
v 3 4 -1.2
v 1 4 -1.3
v 1.1 4 -1.3
v 1 4 -2.7
v 1.1 4 -2.7
v 1 4 -2.8
v 1.1 4 -2.8
v 1.1 4.1 -1.1
v 1.2 4.1 -1.1
v 1.1 4.1 -1.3
v 1.2 4.1 -1.3
v 1.1 4.1 -2.7
v 1.2 4.1 -2.7
v 1.1 4.1 -2.8
v 1.2 4.1 -2.8
v 1.2 4.2 -1.1
v 1.3 4.2 -1.1
v 1.2 4.2 -1.3
v 1.3 4.2 -1.3
v 1.2 4.2 -2.7
v 1.3 4.2 -2.7
v 1.2 4.2 -2.8
v 1.3 4.2 -2.8
v 1.3 4.3 -1.1
v 1.4 4.3 -1.1
v 1.3 4.3 -1.3
v 1.4 4.3 -1.3
v 1.3 4.3 -2.7
v 1.4 4.3 -2.7
v 1.3 4.3 -2.8
v 1.4 4.3 -2.8
v 1.4 4.4 -1.1
v 1.7 4.4 -1.1
v 1.4 4.4 -1.3
v 1.7 4.4 -1.3
v 1.4 4.4 -2.7
v 1.7 4.4 -2.7
v 1.4 4.4 -2.8
v 1.7 4.4 -2.8
v 2 4.9 -1.1
v 2.4 4.9 -1.1
v 2.6 4.9 -1.1
v 3 4.9 -1.1
v 2 4.9 -1.2
v 2.4 4.9 -1.2
v 2.6 4.9 -1.2
v 3 4.9 -1.2
v 2 5.7 -1.1
v 2.4 5.7 -1.1
v 2.6 5.7 -1.1
v 3 5.7 -1.1
v 2 5.7 -1.2
v 2.4 5.7 -1.2
v 2.6 5.7 -1.2
v 3 5.7 -1.2
v 0.4 2.1 -0.8
v 0.5 2.1 -0.8
v 3.5 2.1 -0.8
v 3.6 2.1 -0.8
v 0.5 2.1 -3.1
v 3.5 2.1 -3.1
v 0.4 2.1 -3.2
v 3.6 2.1 -3.2
v 0.5 2.2 -0.8
v 3.5 2.2 -0.8
v 1.7 2.2 -1
v 1.9 2.2 -1
v 3.1 2.2 -1
v 3.3 2.2 -1
v 1.9 2.2 -1.1
v 2.6 2.2 -1.1
v 2.9 2.2 -1.1
v 3.1 2.2 -1.1
v 0.6 2.2 -1.2
v 0.8 2.2 -1.2
v 2.6 2.2 -1.2
v 2.9 2.2 -1.2
v 0.8 2.2 -1.3
v 1 2.2 -1.3
v 1.3 2.2 -1.3
v 1.7 2.2 -1.3
v 1 2.2 -1.4
v 1.3 2.2 -1.4
v 0.6 2.2 -2.7
v 1.7 2.2 -2.7
v 0.5 2.2 -3.1
v 1.7 2.2 -3.1
v 3.3 2.2 -3.1
v 3.5 2.2 -3.1
v 2 2.4 -1.1
v 2.4 2.4 -1.1
v 2 2.4 -1.2
v 2.4 2.4 -1.2
v 0.9 3 -1.3
v 1.6 3 -1.3
v 0.9 3 -1.4
v 1.6 3 -1.4
v 2 3.3 -1.1
v 2.4 3.3 -1.1
v 2.6 3.3 -1.1
v 3 3.3 -1.1
v 2 3.3 -1.2
v 2.4 3.3 -1.2
v 2.6 3.3 -1.2
v 3 3.3 -1.2
v 0.5 3.6 -1.1
v 0.6 3.6 -1.1
v 0.5 3.6 -2.8
v 0.6 3.6 -2.8
v 0.6 3.7 -1.1
v 0.7 3.7 -1.1
v 0.6 3.7 -2.8
v 0.7 3.7 -2.8
v 0.7 3.8 -1.1
v 0.8 3.8 -1.1
v 0.7 3.8 -2.8
v 0.8 3.8 -2.8
v 0.8 3.9 -1.1
v 0.9 3.9 -1.1
v 0.8 3.9 -2.8
v 0.9 3.9 -2.8
v 0.9 4 -1.1
v 1 4 -1.1
v 0.9 4 -2.8
v 1 4 -2.8
v 1 4.1 -1.1
v 1.1 4.1 -1.1
v 1 4.1 -2.8
v 1.1 4.1 -2.8
v 1.1 4.2 -1.1
v 1.2 4.2 -1.1
v 2 4.2 -1.1
v 2.4 4.2 -1.1
v 2.6 4.2 -1.1
v 3 4.2 -1.1
v 2 4.2 -1.2
v 2.4 4.2 -1.2
v 2.6 4.2 -1.2
v 3 4.2 -1.2
v 1.1 4.2 -2.8
v 1.2 4.2 -2.8
v 1.2 4.3 -1.1
v 1.3 4.3 -1.1
v 1.2 4.3 -2.8
v 1.3 4.3 -2.8
v 1.3 4.4 -1.1
v 1.4 4.4 -1.1
v 1.3 4.4 -2.8
v 1.4 4.4 -2.8
v 1.4 4.5 -1.1
v 1.7 4.5 -1.1
v 1.4 4.5 -2.8
v 1.7 4.5 -2.8
v 2 5 -1.1
v 2.4 5 -1.1
v 2.6 5 -1.1
v 3 5 -1.1
v 2 5 -1.2
v 2.4 5 -1.2
v 2.6 5 -1.2
v 3 5 -1.2
v 1.7 6 -1
v 1.9 6 -1
v 3.1 6 -1
v 3.3 6 -1
v 1.9 6 -1.1
v 3.1 6 -1.1
v 1.8 6 -1.2
v 3.2 6 -1.2
v 1.8 6 -3
v 3.2 6 -3
v 1.7 6 -3.1
v 3.3 6 -3.1

# faces
f 3/5/1 2/5/1 1/5/1
f 4/5/1 2/5/1 3/5/1
f 7/5/1 6/5/1 5/5/1
f 8/5/1 6/5/1 7/5/1
f 11/4/1 10/4/1 9/4/1
f 12/4/1 10/4/1 11/4/1
f 15/2/1 14/2/1 13/2/1
f 16/2/1 14/2/1 15/2/1
f 19/4/1 18/4/1 17/4/1
f 20/4/1 18/4/1 19/4/1
f 23/4/1 22/4/1 21/4/1
f 24/4/1 22/4/1 23/4/1
f 27/4/1 26/4/1 25/4/1
f 28/4/1 26/4/1 27/4/1
f 31/4/1 30/4/1 29/4/1
f 32/4/1 30/4/1 31/4/1
f 35/4/1 34/4/1 33/4/1
f 36/4/1 34/4/1 35/4/1
f 39/4/1 38/4/1 37/4/1
f 40/4/1 38/4/1 39/4/1
f 43/4/1 42/4/1 41/4/1
f 44/4/1 42/4/1 43/4/1
f 47/2/1 46/2/1 45/2/1
f 48/2/1 46/2/1 47/2/1
f 51/4/1 50/4/1 49/4/1
f 52/4/1 50/4/1 51/4/1
f 55/4/1 54/4/1 53/4/1
f 56/4/1 54/4/1 55/4/1
f 59/2/1 58/2/1 57/2/1
f 60/2/1 58/2/1 59/2/1
f 65/2/1 62/2/1 61/2/1
f 66/2/1 62/2/1 65/2/1
f 67/2/1 64/2/1 63/2/1
f 68/2/1 64/2/1 67/2/1
f 69/2/1 65/2/1 61/2/1
f 70/2/1 64/2/1 68/2/1
f 71/2/1 69/2/1 61/2/1
f 71/2/1 70/2/1 69/2/1
f 72/2/1 64/2/1 70/2/1
f 72/2/1 70/2/1 71/2/1
f 75/2/1 74/2/1 73/2/1
f 76/2/1 74/2/1 75/2/1
f 79/2/1 78/2/1 77/2/1
f 80/2/1 78/2/1 79/2/1
f 83/2/1 82/2/1 81/2/1
f 84/2/1 82/2/1 83/2/1
f 87/2/1 86/2/1 85/2/1
f 88/2/1 86/2/1 87/2/1
f 91/2/1 90/2/1 89/2/1
f 92/2/1 90/2/1 91/2/1
f 95/2/1 94/2/1 93/2/1
f 96/2/1 94/2/1 95/2/1
f 99/2/1 98/2/1 97/2/1
f 100/2/1 98/2/1 99/2/1
f 103/2/1 102/2/1 101/2/1
f 104/2/1 102/2/1 103/2/1
f 107/2/1 106/2/1 105/2/1
f 108/2/1 106/2/1 107/2/1
f 109/4/2 110/4/2 113/4/2
f 113/4/2 110/4/2 114/4/2
f 111/4/2 112/4/2 115/4/2
f 115/4/2 112/4/2 116/4/2
f 117/4/2 118/4/2 121/4/2
f 121/4/2 118/4/2 122/4/2
f 119/4/2 120/4/2 123/4/2
f 123/4/2 120/4/2 124/4/2
f 125/2/2 126/2/2 128/2/2
f 128/2/2 126/2/2 129/2/2
f 127/4/2 128/4/2 132/4/2
f 128/4/2 129/4/2 132/4/2
f 132/4/2 129/4/2 133/4/2
f 130/4/2 131/4/2 134/4/2
f 134/4/2 131/4/2 135/4/2
f 136/2/2 137/2/2 138/2/2
f 138/2/2 137/2/2 139/2/2
f 140/4/2 141/4/2 144/4/2
f 144/4/2 141/4/2 145/4/2
f 142/4/2 143/4/2 146/4/2
f 146/4/2 143/4/2 147/4/2
f 148/2/2 149/2/2 150/2/2
f 150/2/2 149/2/2 151/2/2
f 152/4/2 153/4/2 156/4/2
f 156/4/2 153/4/2 157/4/2
f 154/4/2 155/4/2 158/4/2
f 158/4/2 155/4/2 159/4/2
f 160/4/2 161/4/2 164/4/2
f 164/4/2 161/4/2 165/4/2
f 162/4/2 163/4/2 166/4/2
f 166/4/2 163/4/2 167/4/2
f 168/4/2 169/4/2 172/4/2
f 172/4/2 169/4/2 173/4/2
f 170/4/2 171/4/2 174/4/2
f 174/4/2 171/4/2 175/4/2
f 176/4/2 177/4/2 180/4/2
f 180/4/2 177/4/2 181/4/2
f 178/4/2 179/4/2 182/4/2
f 182/4/2 179/4/2 183/4/2
f 184/4/2 185/4/2 188/4/2
f 188/4/2 185/4/2 189/4/2
f 186/4/2 187/4/2 190/4/2
f 190/4/2 187/4/2 191/4/2
f 192/2/2 193/2/2 194/2/2
f 194/2/2 193/2/2 195/2/2
f 196/2/2 197/2/2 198/2/2
f 198/2/2 197/2/2 199/2/2
f 200/2/2 201/2/2 202/2/2
f 202/2/2 201/2/2 203/2/2
f 204/2/2 205/2/2 206/2/2
f 206/2/2 205/2/2 207/2/2
f 208/2/2 209/2/2 210/2/2
f 210/2/2 209/2/2 211/2/2
f 212/2/2 213/2/2 214/2/2
f 214/2/2 213/2/2 215/2/2
f 216/2/2 217/2/2 218/2/2
f 218/2/2 217/2/2 219/2/2
f 220/2/2 221/2/2 222/2/2
f 222/2/2 221/2/2 223/2/2
f 224/2/2 225/2/2 226/2/2
f 226/2/2 225/2/2 227/2/2
f 228/2/2 229/2/2 230/2/2
f 230/2/2 229/2/2 231/2/2
f 232/5/2 233/5/2 234/5/2
f 234/5/2 233/5/2 235/5/2
f 236/5/2 237/5/2 238/5/2
f 238/5/2 237/5/2 239/5/2
f 242/5/3 241/5/3 240/5/3
f 244/5/3 242/5/3 240/5/3
f 244/5/3 243/5/3 242/5/3
f 245/5/3 243/5/3 244/5/3
f 246/5/3 244/5/3 240/5/3
f 247/5/3 244/5/3 246/5/3
f 250/2/3 249/2/3 248/2/3
f 251/2/3 249/2/3 250/2/3
f 254/2/3 253/2/3 252/2/3
f 255/2/3 253/2/3 254/2/3
f 258/4/3 257/4/3 256/4/3
f 259/4/3 257/4/3 258/4/3
f 261/4/3 260/4/3 259/4/3
f 262/4/3 260/4/3 261/4/3
f 264/4/3 263/4/3 262/4/3
f 265/4/3 263/4/3 264/4/3
f 267/4/3 266/4/3 265/4/3
f 268/4/3 266/4/3 267/4/3
f 270/4/3 269/4/3 268/4/3
f 271/4/3 269/4/3 270/4/3
f 273/4/3 272/4/3 271/4/3
f 274/4/3 272/4/3 273/4/3
f 276/4/3 275/4/3 274/4/3
f 277/4/3 275/4/3 276/4/3
f 279/4/3 278/4/3 277/4/3
f 280/4/3 278/4/3 279/4/3
f 282/4/3 281/4/3 280/4/3
f 283/4/3 281/4/3 282/4/3
f 285/4/3 284/4/3 283/4/3
f 286/4/3 284/4/3 285/4/3
f 289/2/3 288/2/3 287/2/3
f 290/2/3 288/2/3 289/2/3
f 291/2/3 288/2/3 290/2/3
f 292/2/3 288/2/3 291/2/3
f 293/2/3 288/2/3 292/2/3
f 294/2/3 288/2/3 293/2/3
f 295/2/3 288/2/3 294/2/3
f 296/2/3 288/2/3 295/2/3
f 297/2/3 289/2/3 287/2/3
f 298/2/3 291/2/3 290/2/3
f 299/2/3 291/2/3 298/2/3
f 300/2/3 293/2/3 292/2/3
f 301/2/3 293/2/3 300/2/3
f 302/2/3 295/2/3 294/2/3
f 303/2/3 295/2/3 302/2/3
f 304/2/3 288/2/3 296/2/3
f 305/2/3 303/2/3 302/2/3
f 305/2/3 304/2/3 303/2/3
f 305/2/3 301/2/3 300/2/3
f 305/2/3 297/2/3 287/2/3
f 305/2/3 302/2/3 301/2/3
f 305/2/3 299/2/3 298/2/3
f 305/2/3 300/2/3 299/2/3
f 305/2/3 298/2/3 297/2/3
f 306/2/3 304/2/3 305/2/3
f 307/2/3 304/2/3 306/2/3
f 308/2/3 304/2/3 307/2/3
f 309/2/3 304/2/3 308/2/3
f 310/2/3 304/2/3 309/2/3
f 311/2/3 304/2/3 310/2/3
f 312/2/3 288/2/3 304/2/3
f 312/2/3 304/2/3 311/2/3
f 314/2/3 307/2/3 306/2/3
f 315/2/3 307/2/3 314/2/3
f 315/2/3 314/2/3 313/2/3
f 316/2/3 309/2/3 308/2/3
f 317/2/3 309/2/3 316/2/3
f 318/2/3 311/2/3 310/2/3
f 319/2/3 311/2/3 318/2/3
f 320/2/3 288/2/3 312/2/3
f 321/2/3 317/2/3 316/2/3
f 321/2/3 320/2/3 319/2/3
f 321/2/3 319/2/3 318/2/3
f 321/2/3 315/2/3 313/2/3
f 321/2/3 318/2/3 317/2/3
f 321/2/3 316/2/3 315/2/3
f 322/2/3 288/2/3 320/2/3
f 322/2/3 320/2/3 321/2/3
f 326/2/3 324/2/3 323/2/3
f 326/2/3 325/2/3 324/2/3
f 328/2/3 326/2/3 323/2/3
f 328/2/3 327/2/3 326/2/3
f 329/2/3 327/2/3 328/2/3
f 338/1/3 331/1/3 330/1/3
f 339/1/3 331/1/3 338/1/3
f 340/1/3 333/1/3 332/1/3
f 341/1/3 333/1/3 340/1/3
f 342/1/3 335/1/3 334/1/3
f 343/1/3 335/1/3 342/1/3
f 344/1/3 337/1/3 336/1/3
f 345/1/3 337/1/3 344/1/3
f 354/3/3 347/3/3 346/3/3
f 355/3/3 347/3/3 354/3/3
f 356/1/3 349/1/3 348/1/3
f 357/1/3 349/1/3 356/1/3
f 358/1/3 351/1/3 350/1/3
f 359/1/3 351/1/3 358/1/3
f 360/1/3 353/1/3 352/1/3
f 361/1/3 353/1/3 360/1/3
f 365/2/3 363/2/3 362/2/3
f 365/2/3 364/2/3 363/2/3
f 366/2/3 364/2/3 365/2/3
f 367/2/3 364/2/3 366/2/3
f 369/2/3 365/2/3 362/2/3
f 370/2/3 365/2/3 369/2/3
f 371/2/3 368/2/3 367/2/3
f 371/2/3 367/2/3 366/2/3
f 373/2/3 372/2/3 371/2/3
f 375/2/3 374/2/3 373/2/3
f 378/2/3 365/2/3 370/2/3
f 379/2/3 376/2/3 375/2/3
f 381/2/3 380/2/3 379/2/3
f 383/2/3 378/2/3 377/2/3
f 383/2/3 365/2/3 378/2/3
f 384/2/3 382/2/3 381/2/3
f 384/2/3 371/2/3 366/2/3
f 384/2/3 379/2/3 375/2/3
f 384/2/3 381/2/3 379/2/3
f 384/2/3 373/2/3 371/2/3
f 384/2/3 375/2/3 373/2/3
f 385/2/3 383/2/3 377/2/3
f 385/2/3 384/2/3 383/2/3
f 386/2/3 382/2/3 384/2/3
f 386/2/3 384/2/3 385/2/3
f 391/3/3 390/3/3 389/3/3
f 392/3/3 390/3/3 391/3/3
f 393/1/3 388/1/3 387/1/3
f 394/1/3 388/1/3 393/1/3
f 395/2/4 396/2/4 398/2/4
f 396/2/4 397/2/4 398/2/4
f 398/2/4 399/2/4 400/2/4
f 400/2/4 401/2/4 402/2/4
f 402/2/4 403/2/4 404/2/4
f 404/2/4 405/2/4 406/2/4
f 406/2/4 407/2/4 408/2/4
f 408/2/4 409/2/4 410/2/4
f 410/2/4 411/2/4 412/2/4
f 395/2/4 398/2/4 414/2/4
f 412/2/4 413/2/4 414/2/4
f 410/2/4 412/2/4 414/2/4
f 408/2/4 410/2/4 414/2/4
f 406/2/4 408/2/4 414/2/4
f 404/2/4 406/2/4 414/2/4
f 402/2/4 404/2/4 414/2/4
f 400/2/4 402/2/4 414/2/4
f 398/2/4 400/2/4 414/2/4
f 414/2/4 413/2/4 415/2/4
f 416/4/4 417/4/4 418/4/4
f 418/4/4 417/4/4 419/4/4
f 419/4/4 420/4/4 421/4/4
f 421/4/4 420/4/4 422/4/4
f 422/4/4 423/4/4 424/4/4
f 424/4/4 423/4/4 425/4/4
f 425/4/4 426/4/4 427/4/4
f 427/4/4 426/4/4 428/4/4
f 428/4/4 429/4/4 430/4/4
f 430/4/4 429/4/4 431/4/4
f 431/4/4 432/4/4 433/4/4
f 433/4/4 432/4/4 434/4/4
f 434/4/4 435/4/4 436/4/4
f 436/4/4 435/4/4 437/4/4
f 437/4/4 438/4/4 439/4/4
f 439/4/4 438/4/4 440/4/4
f 440/4/4 441/4/4 442/4/4
f 442/4/4 441/4/4 443/4/4
f 443/4/4 444/4/4 445/4/4
f 445/4/4 444/4/4 446/4/4
f 447/5/4 448/5/4 449/5/4
f 447/5/4 449/5/4 451/5/4
f 449/2/4 450/2/4 451/2/4
f 451/2/4 450/2/4 452/2/4
f 447/5/4 451/5/4 453/5/4
f 453/5/4 451/5/4 454/5/4
f 455/5/4 456/5/4 457/5/4
f 457/5/4 456/5/4 458/5/4
f 461/5/5 460/5/5 459/5/5
f 462/5/5 460/5/5 461/5/5
f 465/2/5 464/2/5 463/2/5
f 466/2/5 464/2/5 465/2/5
f 469/2/5 468/2/5 467/2/5
f 470/2/5 468/2/5 469/2/5
f 473/2/5 472/2/5 471/2/5
f 474/2/5 472/2/5 473/2/5
f 477/2/5 476/2/5 475/2/5
f 478/2/5 476/2/5 477/2/5
f 481/4/5 480/4/5 479/4/5
f 482/4/5 481/4/5 479/4/5
f 483/4/5 482/4/5 479/4/5
f 484/4/5 482/4/5 483/4/5
f 487/4/5 486/4/5 485/4/5
f 488/4/5 486/4/5 487/4/5
f 491/4/5 490/4/5 489/4/5
f 492/4/5 490/4/5 491/4/5
f 495/4/5 494/4/5 493/4/5
f 496/4/5 494/4/5 495/4/5
f 499/4/5 498/4/5 497/4/5
f 500/4/5 498/4/5 499/4/5
f 503/4/5 502/4/5 501/4/5
f 504/4/5 502/4/5 503/4/5
f 507/4/5 506/4/5 505/4/5
f 508/4/5 506/4/5 507/4/5
f 511/4/5 510/4/5 509/4/5
f 512/4/5 510/4/5 511/4/5
f 515/4/5 514/4/5 513/4/5
f 516/4/5 514/4/5 515/4/5
f 523/2/5 520/2/5 519/2/5
f 524/2/5 520/2/5 523/2/5
f 525/2/5 522/2/5 521/2/5
f 526/2/5 522/2/5 525/2/5
f 527/4/5 518/4/5 517/4/5
f 528/4/5 518/4/5 527/4/5
f 531/4/5 530/4/5 529/4/5
f 532/4/5 530/4/5 531/4/5
f 535/4/5 534/4/5 533/4/5
f 536/4/5 534/4/5 535/4/5
f 539/4/5 538/4/5 537/4/5
f 540/4/5 538/4/5 539/4/5
f 543/4/5 542/4/5 541/4/5
f 544/4/5 542/4/5 543/4/5
f 547/4/5 546/4/5 545/4/5
f 548/4/5 546/4/5 547/4/5
f 551/4/5 550/4/5 549/4/5
f 552/4/5 550/4/5 551/4/5
f 555/4/5 554/4/5 553/4/5
f 556/4/5 554/4/5 555/4/5
f 559/4/5 558/4/5 557/4/5
f 560/4/5 558/4/5 559/4/5
f 563/4/5 562/4/5 561/4/5
f 564/4/5 562/4/5 563/4/5
f 569/2/5 566/2/5 565/2/5
f 570/2/5 566/2/5 569/2/5
f 571/2/5 568/2/5 567/2/5
f 572/2/5 568/2/5 571/2/5
f 577/2/5 574/2/5 573/2/5
f 578/2/5 574/2/5 577/2/5
f 579/2/5 576/2/5 575/2/5
f 580/2/5 576/2/5 579/2/5
f 581/5/6 582/5/6 585/5/6
f 583/5/6 584/5/6 586/5/6
f 581/5/6 585/5/6 587/5/6
f 585/5/6 586/5/6 587/5/6
f 586/5/6 584/5/6 588/5/6
f 587/5/6 586/5/6 588/5/6
f 589/5/6 590/5/6 591/5/6
f 591/5/6 590/5/6 592/5/6
f 592/5/6 590/5/6 593/5/6
f 593/5/6 590/5/6 594/5/6
f 592/5/6 593/5/6 595/5/6
f 595/5/6 593/5/6 596/5/6
f 596/5/6 593/5/6 597/5/6
f 597/5/6 593/5/6 598/5/6
f 589/5/6 591/5/6 599/5/6
f 599/5/6 591/5/6 600/5/6
f 596/5/6 597/5/6 601/5/6
f 601/5/6 597/5/6 602/5/6
f 600/5/6 591/5/6 603/5/6
f 603/5/6 591/5/6 604/5/6
f 604/5/6 591/5/6 605/5/6
f 605/5/6 591/5/6 606/5/6
f 604/5/6 605/5/6 607/5/6
f 607/5/6 605/5/6 608/5/6
f 589/5/6 599/5/6 609/5/6
f 589/5/6 609/5/6 611/5/6
f 609/5/6 610/5/6 611/5/6
f 611/5/6 610/5/6 612/5/6
f 594/5/6 590/5/6 613/5/6
f 613/5/6 590/5/6 614/5/6
f 615/2/6 616/2/6 617/2/6
f 617/2/6 616/2/6 618/2/6
f 619/2/6 620/2/6 621/2/6
f 621/2/6 620/2/6 622/2/6
f 623/2/6 624/2/6 627/2/6
f 627/2/6 624/2/6 628/2/6
f 625/2/6 626/2/6 629/2/6
f 629/2/6 626/2/6 630/2/6
f 631/4/6 632/4/6 633/4/6
f 633/4/6 632/4/6 634/4/6
f 635/4/6 636/4/6 637/4/6
f 637/4/6 636/4/6 638/4/6
f 639/4/6 640/4/6 641/4/6
f 641/4/6 640/4/6 642/4/6
f 643/4/6 644/4/6 645/4/6
f 645/4/6 644/4/6 646/4/6
f 647/4/6 648/4/6 649/4/6
f 649/4/6 648/4/6 650/4/6
f 651/4/6 652/4/6 653/4/6
f 653/4/6 652/4/6 654/4/6
f 657/2/6 658/2/6 661/2/6
f 661/2/6 658/2/6 662/2/6
f 659/2/6 660/2/6 663/2/6
f 663/2/6 660/2/6 664/2/6
f 655/4/6 656/4/6 665/4/6
f 665/4/6 656/4/6 666/4/6
f 667/4/6 668/4/6 669/4/6
f 669/4/6 668/4/6 670/4/6
f 671/4/6 672/4/6 673/4/6
f 673/4/6 672/4/6 674/4/6
f 675/4/6 676/4/6 677/4/6
f 677/4/6 676/4/6 678/4/6
f 679/2/6 680/2/6 683/2/6
f 683/2/6 680/2/6 684/2/6
f 681/2/6 682/2/6 685/2/6
f 685/2/6 682/2/6 686/2/6
f 687/2/6 688/2/6 691/2/6
f 689/2/6 690/2/6 692/2/6
f 687/2/6 691/2/6 693/2/6
f 691/2/6 692/2/6 693/2/6
f 692/2/6 690/2/6 694/2/6
f 693/2/6 692/2/6 694/2/6
f 687/2/6 693/2/6 695/2/6
f 693/1/6 694/1/6 695/1/6
f 694/2/6 690/2/6 696/2/6
f 695/1/6 694/1/6 696/1/6
f 687/2/6 695/2/6 697/2/6
f 695/2/6 696/2/6 697/2/6
f 696/2/6 690/2/6 698/2/6
f 697/2/6 696/2/6 698/2/6
