# MagicaVoxel @ Ephtracy

# group
o 

# material
mtllib wheel.mtl
usemtl palette

# normals
vn -1 0 0
vn 1 0 0
vn 0 0 1
vn 0 0 -1
vn 0 -1 0
vn 0 1 0

# texcoords
vt 0.962891 0.5
vt 0.978516 0.5
vt 0.990234 0.5

# verts
v 1.1 2.1 -1.2
v 1.1 2.1 -1.7
v 1.1 2.2 -1.1
v 1.1 2.2 -1.2
v 1.1 2.2 -1.3
v 1.1 2.2 -1.6
v 1.1 2.2 -1.7
v 1.1 2.2 -1.8
v 1.1 2.3 -1
v 1.1 2.3 -1.1
v 1.1 2.3 -1.2
v 1.1 2.3 -1.3
v 1.1 2.3 -1.6
v 1.1 2.3 -1.7
v 1.1 2.3 -1.8
v 1.1 2.3 -1.9
v 1.1 2.4 -1.1
v 1.1 2.4 -1.2
v 1.1 2.4 -1.7
v 1.1 2.4 -1.8
v 1.1 2.7 -1.1
v 1.1 2.7 -1.2
v 1.1 2.7 -1.7
v 1.1 2.7 -1.8
v 1.1 2.8 -1
v 1.1 2.8 -1.1
v 1.1 2.8 -1.2
v 1.1 2.8 -1.3
v 1.1 2.8 -1.6
v 1.1 2.8 -1.7
v 1.1 2.8 -1.8
v 1.1 2.8 -1.9
v 1.1 2.9 -1.1
v 1.1 2.9 -1.2
v 1.1 2.9 -1.3
v 1.1 2.9 -1.6
v 1.1 2.9 -1.7
v 1.1 2.9 -1.8
v 1.1 3 -1.2
v 1.1 3 -1.7
v 1.2 2 -1.2
v 1.2 2 -1.7
v 1.2 2.1 -1.1
v 1.2 2.1 -1.2
v 1.2 2.1 -1.7
v 1.2 2.1 -1.8
v 1.2 2.2 -1
v 1.2 2.2 -1.1
v 1.2 2.2 -1.2
v 1.2 2.2 -1.3
v 1.2 2.2 -1.6
v 1.2 2.2 -1.7
v 1.2 2.2 -1.8
v 1.2 2.2 -1.9
v 1.2 2.3 -0.9
v 1.2 2.3 -1
v 1.2 2.3 -1.1
v 1.2 2.3 -1.2
v 1.2 2.3 -1.3
v 1.2 2.3 -1.6
v 1.2 2.3 -1.7
v 1.2 2.3 -1.8
v 1.2 2.3 -1.9
v 1.2 2.3 -2
v 1.2 2.4 -1.1
v 1.2 2.4 -1.2
v 1.2 2.4 -1.7
v 1.2 2.4 -1.8
v 1.2 2.5 -1.4
v 1.2 2.5 -1.5
v 1.2 2.6 -1.4
v 1.2 2.6 -1.5
v 1.2 2.7 -1.1
v 1.2 2.7 -1.2
v 1.2 2.7 -1.7
v 1.2 2.7 -1.8
v 1.2 2.8 -0.9
v 1.2 2.8 -1
v 1.2 2.8 -1.1
v 1.2 2.8 -1.2
v 1.2 2.8 -1.3
v 1.2 2.8 -1.6
v 1.2 2.8 -1.7
v 1.2 2.8 -1.8
v 1.2 2.8 -1.9
v 1.2 2.8 -2
v 1.2 2.9 -1
v 1.2 2.9 -1.1
v 1.2 2.9 -1.2
v 1.2 2.9 -1.3
v 1.2 2.9 -1.6
v 1.2 2.9 -1.7
v 1.2 2.9 -1.8
v 1.2 2.9 -1.9
v 1.2 3 -1.1
v 1.2 3 -1.2
v 1.2 3 -1.7
v 1.2 3 -1.8
v 1.2 3.1 -1.2
v 1.2 3.1 -1.7
v 1.3 2 -1.2
v 1.3 2 -1.7
v 1.3 2.1 -1.1
v 1.3 2.1 -1.2
v 1.3 2.1 -1.7
v 1.3 2.1 -1.8
v 1.3 2.2 -1
v 1.3 2.2 -1.1
v 1.3 2.2 -1.8
v 1.3 2.2 -1.9
v 1.3 2.3 -0.9
v 1.3 2.3 -1
v 1.3 2.3 -1.9
v 1.3 2.3 -2
v 1.3 2.5 -1.4
v 1.3 2.5 -1.5
v 1.3 2.6 -1.4
v 1.3 2.6 -1.5
v 1.3 2.8 -0.9
v 1.3 2.8 -1
v 1.3 2.8 -1.9
v 1.3 2.8 -2
v 1.3 2.9 -1
v 1.3 2.9 -1.1
v 1.3 2.9 -1.8
v 1.3 2.9 -1.9
v 1.3 3 -1.1
v 1.3 3 -1.2
v 1.3 3 -1.7
v 1.3 3 -1.8
v 1.3 3.1 -1.2
v 1.3 3.1 -1.7
v 1.4 2.5 -1.4
v 1.4 2.5 -1.5
v 1.4 2.6 -1.4
v 1.4 2.6 -1.5
v 1.2 2.3 -0.9
v 1.2 2.8 -0.9
v 1.3 2.3 -0.9
v 1.3 2.8 -0.9
v 1.1 2.3 -1
v 1.1 2.8 -1
v 1.2 2.2 -1
v 1.2 2.3 -1
v 1.2 2.8 -1
v 1.2 2.9 -1
v 1.3 2.2 -1
v 1.3 2.3 -1
v 1.3 2.8 -1
v 1.3 2.9 -1
v 1.1 2.2 -1.1
v 1.1 2.3 -1.1
v 1.1 2.8 -1.1
v 1.1 2.9 -1.1
v 1.2 2.1 -1.1
v 1.2 2.2 -1.1
v 1.2 2.3 -1.1
v 1.2 2.8 -1.1
v 1.2 2.9 -1.1
v 1.2 3 -1.1
v 1.3 2.1 -1.1
v 1.3 2.2 -1.1
v 1.3 2.9 -1.1
v 1.3 3 -1.1
v 1.1 2.1 -1.2
v 1.1 2.2 -1.2
v 1.1 2.9 -1.2
v 1.1 3 -1.2
v 1.2 2 -1.2
v 1.2 2.1 -1.2
v 1.2 2.2 -1.2
v 1.2 2.9 -1.2
v 1.2 3 -1.2
v 1.2 3.1 -1.2
v 1.3 2 -1.2
v 1.3 2.1 -1.2
v 1.3 3 -1.2
v 1.3 3.1 -1.2
v 1.3 2.5 -1.4
v 1.3 2.6 -1.4
v 1.4 2.5 -1.4
v 1.4 2.6 -1.4
v 1.1 2.2 -1.6
v 1.1 2.3 -1.6
v 1.1 2.8 -1.6
v 1.1 2.9 -1.6
v 1.2 2.2 -1.6
v 1.2 2.3 -1.6
v 1.2 2.8 -1.6
v 1.2 2.9 -1.6
v 1.1 2.3 -1.7
v 1.1 2.4 -1.7
v 1.1 2.7 -1.7
v 1.1 2.8 -1.7
v 1.2 2.3 -1.7
v 1.2 2.4 -1.7
v 1.2 2.7 -1.7
v 1.2 2.8 -1.7
v 1.1 2.4 -1.8
v 1.1 2.7 -1.8
v 1.2 2.4 -1.8
v 1.2 2.7 -1.8
v 1.1 2.4 -1.1
v 1.1 2.7 -1.1
v 1.2 2.4 -1.1
v 1.2 2.7 -1.1
v 1.1 2.3 -1.2
v 1.1 2.4 -1.2
v 1.1 2.7 -1.2
v 1.1 2.8 -1.2
v 1.2 2.3 -1.2
v 1.2 2.4 -1.2
v 1.2 2.7 -1.2
v 1.2 2.8 -1.2
v 1.1 2.2 -1.3
v 1.1 2.3 -1.3
v 1.1 2.8 -1.3
v 1.1 2.9 -1.3
v 1.2 2.2 -1.3
v 1.2 2.3 -1.3
v 1.2 2.8 -1.3
v 1.2 2.9 -1.3
v 1.3 2.5 -1.5
v 1.3 2.6 -1.5
v 1.4 2.5 -1.5
v 1.4 2.6 -1.5
v 1.1 2.1 -1.7
v 1.1 2.2 -1.7
v 1.1 2.9 -1.7
v 1.1 3 -1.7
v 1.2 2 -1.7
v 1.2 2.1 -1.7
v 1.2 2.2 -1.7
v 1.2 2.9 -1.7
v 1.2 3 -1.7
v 1.2 3.1 -1.7
v 1.3 2 -1.7
v 1.3 2.1 -1.7
v 1.3 3 -1.7
v 1.3 3.1 -1.7
v 1.1 2.2 -1.8
v 1.1 2.3 -1.8
v 1.1 2.8 -1.8
v 1.1 2.9 -1.8
v 1.2 2.1 -1.8
v 1.2 2.2 -1.8
v 1.2 2.3 -1.8
v 1.2 2.8 -1.8
v 1.2 2.9 -1.8
v 1.2 3 -1.8
v 1.3 2.1 -1.8
v 1.3 2.2 -1.8
v 1.3 2.9 -1.8
v 1.3 3 -1.8
v 1.1 2.3 -1.9
v 1.1 2.8 -1.9
v 1.2 2.2 -1.9
v 1.2 2.3 -1.9
v 1.2 2.8 -1.9
v 1.2 2.9 -1.9
v 1.3 2.2 -1.9
v 1.3 2.3 -1.9
v 1.3 2.8 -1.9
v 1.3 2.9 -1.9
v 1.2 2.3 -2
v 1.2 2.8 -2
v 1.3 2.3 -2
v 1.3 2.8 -2
v 1.2 2 -1.2
v 1.3 2 -1.2
v 1.2 2 -1.7
v 1.3 2 -1.7
v 1.2 2.1 -1.1
v 1.3 2.1 -1.1
v 1.1 2.1 -1.2
v 1.2 2.1 -1.2
v 1.3 2.1 -1.2
v 1.1 2.1 -1.7
v 1.2 2.1 -1.7
v 1.3 2.1 -1.7
v 1.2 2.1 -1.8
v 1.3 2.1 -1.8
v 1.2 2.2 -1
v 1.3 2.2 -1
v 1.1 2.2 -1.1
v 1.2 2.2 -1.1
v 1.3 2.2 -1.1
v 1.1 2.2 -1.2
v 1.2 2.2 -1.2
v 1.1 2.2 -1.7
v 1.2 2.2 -1.7
v 1.1 2.2 -1.8
v 1.2 2.2 -1.8
v 1.3 2.2 -1.8
v 1.2 2.2 -1.9
v 1.3 2.2 -1.9
v 1.2 2.3 -0.9
v 1.3 2.3 -0.9
v 1.1 2.3 -1
v 1.2 2.3 -1
v 1.3 2.3 -1
v 1.1 2.3 -1.1
v 1.2 2.3 -1.1
v 1.1 2.3 -1.8
v 1.2 2.3 -1.8
v 1.1 2.3 -1.9
v 1.2 2.3 -1.9
v 1.3 2.3 -1.9
v 1.2 2.3 -2
v 1.3 2.3 -2
v 1.3 2.5 -1.4
v 1.4 2.5 -1.4
v 1.3 2.5 -1.5
v 1.4 2.5 -1.5
v 1.1 2.7 -1.1
v 1.2 2.7 -1.1
v 1.1 2.7 -1.2
v 1.2 2.7 -1.2
v 1.1 2.7 -1.7
v 1.2 2.7 -1.7
v 1.1 2.7 -1.8
v 1.2 2.7 -1.8
v 1.1 2.8 -1.2
v 1.2 2.8 -1.2
v 1.1 2.8 -1.3
v 1.2 2.8 -1.3
v 1.1 2.8 -1.6
v 1.2 2.8 -1.6
v 1.1 2.8 -1.7
v 1.2 2.8 -1.7
v 1.1 2.9 -1.3
v 1.2 2.9 -1.3
v 1.1 2.9 -1.6
v 1.2 2.9 -1.6
v 1.1 2.2 -1.3
v 1.2 2.2 -1.3
v 1.1 2.2 -1.6
v 1.2 2.2 -1.6
v 1.1 2.3 -1.2
v 1.2 2.3 -1.2
v 1.1 2.3 -1.3
v 1.2 2.3 -1.3
v 1.1 2.3 -1.6
v 1.2 2.3 -1.6
v 1.1 2.3 -1.7
v 1.2 2.3 -1.7
v 1.1 2.4 -1.1
v 1.2 2.4 -1.1
v 1.1 2.4 -1.2
v 1.2 2.4 -1.2
v 1.1 2.4 -1.7
v 1.2 2.4 -1.7
v 1.1 2.4 -1.8
v 1.2 2.4 -1.8
v 1.3 2.6 -1.4
v 1.4 2.6 -1.4
v 1.3 2.6 -1.5
v 1.4 2.6 -1.5
v 1.2 2.8 -0.9
v 1.3 2.8 -0.9
v 1.1 2.8 -1
v 1.2 2.8 -1
v 1.3 2.8 -1
v 1.1 2.8 -1.1
v 1.2 2.8 -1.1
v 1.1 2.8 -1.8
v 1.2 2.8 -1.8
v 1.1 2.8 -1.9
v 1.2 2.8 -1.9
v 1.3 2.8 -1.9
v 1.2 2.8 -2
v 1.3 2.8 -2
v 1.2 2.9 -1
v 1.3 2.9 -1
v 1.1 2.9 -1.1
v 1.2 2.9 -1.1
v 1.3 2.9 -1.1
v 1.1 2.9 -1.2
v 1.2 2.9 -1.2
v 1.1 2.9 -1.7
v 1.2 2.9 -1.7
v 1.1 2.9 -1.8
v 1.2 2.9 -1.8
v 1.3 2.9 -1.8
v 1.2 2.9 -1.9
v 1.3 2.9 -1.9
v 1.2 3 -1.1
v 1.3 3 -1.1
v 1.1 3 -1.2
v 1.2 3 -1.2
v 1.3 3 -1.2
v 1.1 3 -1.7
v 1.2 3 -1.7
v 1.3 3 -1.7
v 1.2 3 -1.8
v 1.3 3 -1.8
v 1.2 3.1 -1.2
v 1.3 3.1 -1.2
v 1.2 3.1 -1.7
v 1.3 3.1 -1.7

# faces
f 4/1/1 2/1/1 1/1/1
f 5/1/1 2/1/1 4/1/1
f 6/1/1 2/1/1 5/1/1
f 7/1/1 2/1/1 6/1/1
f 10/1/1 4/1/1 3/1/1
f 10/1/1 5/1/1 4/1/1
f 11/1/1 5/1/1 10/1/1
f 12/1/1 5/1/1 11/1/1
f 13/1/1 7/1/1 6/1/1
f 13/1/1 8/1/1 7/1/1
f 14/1/1 8/1/1 13/1/1
f 15/1/1 8/1/1 14/1/1
f 17/1/1 11/1/1 10/1/1
f 17/1/1 10/1/1 9/1/1
f 18/1/1 11/1/1 17/1/1
f 19/1/1 16/1/1 15/1/1
f 19/1/1 15/1/1 14/1/1
f 20/1/1 16/1/1 19/1/1
f 21/1/1 17/1/1 9/1/1
f 24/1/1 16/1/1 20/1/1
f 25/1/1 22/1/1 21/1/1
f 25/1/1 21/1/1 9/1/1
f 26/1/1 22/1/1 25/1/1
f 27/1/1 22/1/1 26/1/1
f 30/1/1 24/1/1 23/1/1
f 31/1/1 16/1/1 24/1/1
f 31/1/1 24/1/1 30/1/1
f 32/1/1 16/1/1 31/1/1
f 33/1/1 28/1/1 27/1/1
f 33/1/1 27/1/1 26/1/1
f 34/1/1 28/1/1 33/1/1
f 35/1/1 28/1/1 34/1/1
f 36/1/1 30/1/1 29/1/1
f 36/1/1 31/1/1 30/1/1
f 37/1/1 31/1/1 36/1/1
f 38/1/1 31/1/1 37/1/1
f 39/1/1 35/1/1 34/1/1
f 39/1/1 37/1/1 36/1/1
f 39/1/1 36/1/1 35/1/1
f 40/1/1 37/1/1 39/1/1
f 44/3/1 42/3/1 41/3/1
f 45/3/1 42/3/1 44/3/1
f 48/3/1 44/3/1 43/3/1
f 49/3/1 44/3/1 48/3/1
f 52/3/1 46/3/1 45/3/1
f 53/3/1 46/3/1 52/3/1
f 56/3/1 48/3/1 47/3/1
f 57/3/1 48/3/1 56/3/1
f 59/3/1 51/3/1 50/3/1
f 60/3/1 51/3/1 59/3/1
f 62/3/1 54/3/1 53/3/1
f 63/3/1 54/3/1 62/3/1
f 66/3/1 61/3/1 60/3/1
f 66/3/1 59/3/1 58/3/1
f 66/3/1 60/3/1 59/3/1
f 67/3/1 61/3/1 66/3/1
f 69/3/1 66/3/1 65/3/1
f 69/3/1 68/3/1 67/3/1
f 69/3/1 67/3/1 66/3/1
f 70/3/1 68/3/1 69/3/1
f 71/3/1 69/3/1 65/3/1
f 71/1/1 70/1/1 69/1/1
f 72/3/1 68/3/1 70/3/1
f 72/1/1 70/1/1 71/1/1
f 73/3/1 71/3/1 65/3/1
f 73/3/1 72/3/1 71/3/1
f 74/3/1 72/3/1 73/3/1
f 75/3/1 68/3/1 72/3/1
f 75/3/1 72/3/1 74/3/1
f 76/3/1 68/3/1 75/3/1
f 77/3/1 56/3/1 55/3/1
f 78/3/1 56/3/1 77/3/1
f 80/3/1 75/3/1 74/3/1
f 81/3/1 75/3/1 80/3/1
f 82/3/1 75/3/1 81/3/1
f 83/3/1 75/3/1 82/3/1
f 85/3/1 64/3/1 63/3/1
f 86/3/1 64/3/1 85/3/1
f 87/3/1 79/3/1 78/3/1
f 88/3/1 79/3/1 87/3/1
f 90/3/1 82/3/1 81/3/1
f 91/3/1 82/3/1 90/3/1
f 93/3/1 85/3/1 84/3/1
f 94/3/1 85/3/1 93/3/1
f 95/3/1 89/3/1 88/3/1
f 96/3/1 89/3/1 95/3/1
f 97/3/1 93/3/1 92/3/1
f 98/3/1 93/3/1 97/3/1
f 99/3/1 97/3/1 96/3/1
f 100/3/1 97/3/1 99/3/1
f 101/3/2 102/3/2 104/3/2
f 104/3/2 102/3/2 105/3/2
f 103/3/2 104/3/2 108/3/2
f 105/3/2 106/3/2 108/3/2
f 104/3/2 105/3/2 108/3/2
f 108/3/2 106/3/2 109/3/2
f 107/3/2 108/3/2 112/3/2
f 109/3/2 110/3/2 112/3/2
f 108/3/2 109/3/2 112/3/2
f 112/3/2 110/3/2 113/3/2
f 111/3/2 112/3/2 115/3/2
f 113/3/2 114/3/2 115/3/2
f 112/3/2 113/3/2 115/3/2
f 115/3/2 114/3/2 116/3/2
f 111/3/2 115/3/2 117/3/2
f 116/3/2 114/3/2 118/3/2
f 111/3/2 117/3/2 119/3/2
f 117/3/2 118/3/2 119/3/2
f 119/3/2 118/3/2 120/3/2
f 118/3/2 114/3/2 121/3/2
f 120/3/2 118/3/2 121/3/2
f 121/3/2 114/3/2 122/3/2
f 120/3/2 121/3/2 123/3/2
f 123/3/2 121/3/2 124/3/2
f 124/3/2 121/3/2 125/3/2
f 125/3/2 121/3/2 126/3/2
f 124/3/2 125/3/2 127/3/2
f 127/3/2 125/3/2 128/3/2
f 128/3/2 125/3/2 129/3/2
f 129/3/2 125/3/2 130/3/2
f 128/3/2 129/3/2 131/3/2
f 131/3/2 129/3/2 132/3/2
f 133/2/2 134/2/2 135/2/2
f 135/2/2 134/2/2 136/2/2
f 139/3/3 138/3/3 137/3/3
f 140/3/3 138/3/3 139/3/3
f 144/1/3 142/1/3 141/1/3
f 145/1/3 142/1/3 144/1/3
f 147/3/3 144/3/3 143/3/3
f 148/3/3 144/3/3 147/3/3
f 149/3/3 146/3/3 145/3/3
f 150/3/3 146/3/3 149/3/3
f 156/1/3 152/1/3 151/1/3
f 157/1/3 152/1/3 156/1/3
f 158/1/3 154/1/3 153/1/3
f 159/1/3 154/1/3 158/1/3
f 161/3/3 156/3/3 155/3/3
f 162/3/3 156/3/3 161/3/3
f 163/3/3 160/3/3 159/3/3
f 164/3/3 160/3/3 163/3/3
f 170/1/3 166/1/3 165/1/3
f 171/1/3 166/1/3 170/1/3
f 172/1/3 168/1/3 167/1/3
f 173/1/3 168/1/3 172/1/3
f 175/3/3 170/3/3 169/3/3
f 176/3/3 170/3/3 175/3/3
f 177/3/3 174/3/3 173/3/3
f 178/3/3 174/3/3 177/3/3
f 181/2/3 180/2/3 179/2/3
f 182/2/3 180/2/3 181/2/3
f 187/1/3 184/1/3 183/1/3
f 188/1/3 184/1/3 187/1/3
f 189/1/3 186/1/3 185/1/3
f 190/1/3 186/1/3 189/1/3
f 195/1/3 192/1/3 191/1/3
f 196/1/3 192/1/3 195/1/3
f 197/1/3 194/1/3 193/1/3
f 198/1/3 194/1/3 197/1/3
f 201/1/3 200/1/3 199/1/3
f 202/1/3 200/1/3 201/1/3
f 203/1/4 204/1/4 205/1/4
f 205/1/4 204/1/4 206/1/4
f 207/1/4 208/1/4 211/1/4
f 211/1/4 208/1/4 212/1/4
f 209/1/4 210/1/4 213/1/4
f 213/1/4 210/1/4 214/1/4
f 215/1/4 216/1/4 219/1/4
f 219/1/4 216/1/4 220/1/4
f 217/1/4 218/1/4 221/1/4
f 221/1/4 218/1/4 222/1/4
f 223/2/4 224/2/4 225/2/4
f 225/2/4 224/2/4 226/2/4
f 227/1/4 228/1/4 232/1/4
f 232/1/4 228/1/4 233/1/4
f 229/1/4 230/1/4 234/1/4
f 234/1/4 230/1/4 235/1/4
f 231/3/4 232/3/4 237/3/4
f 237/3/4 232/3/4 238/3/4
f 235/3/4 236/3/4 239/3/4
f 239/3/4 236/3/4 240/3/4
f 241/1/4 242/1/4 246/1/4
f 246/1/4 242/1/4 247/1/4
f 243/1/4 244/1/4 248/1/4
f 248/1/4 244/1/4 249/1/4
f 245/3/4 246/3/4 251/3/4
f 251/3/4 246/3/4 252/3/4
f 249/3/4 250/3/4 253/3/4
f 253/3/4 250/3/4 254/3/4
f 255/1/4 256/1/4 258/1/4
f 258/1/4 256/1/4 259/1/4
f 257/3/4 258/3/4 261/3/4
f 261/3/4 258/3/4 262/3/4
f 259/3/4 260/3/4 263/3/4
f 263/3/4 260/3/4 264/3/4
f 265/3/4 266/3/4 267/3/4
f 267/3/4 266/3/4 268/3/4
f 271/3/5 270/3/5 269/3/5
f 272/3/5 270/3/5 271/3/5
f 276/3/5 274/3/5 273/3/5
f 277/3/5 274/3/5 276/3/5
f 278/1/5 276/1/5 275/1/5
f 279/1/5 276/1/5 278/1/5
f 281/3/5 280/3/5 279/3/5
f 282/3/5 280/3/5 281/3/5
f 286/3/5 284/3/5 283/3/5
f 287/3/5 284/3/5 286/3/5
f 288/1/5 286/1/5 285/1/5
f 289/1/5 286/1/5 288/1/5
f 292/1/5 291/1/5 290/1/5
f 293/1/5 291/1/5 292/1/5
f 295/3/5 294/3/5 293/3/5
f 296/3/5 294/3/5 295/3/5
f 300/3/5 298/3/5 297/3/5
f 301/3/5 298/3/5 300/3/5
f 302/1/5 300/1/5 299/1/5
f 303/1/5 300/1/5 302/1/5
f 306/1/5 305/1/5 304/1/5
f 307/1/5 305/1/5 306/1/5
f 309/3/5 308/3/5 307/3/5
f 310/3/5 308/3/5 309/3/5
f 313/2/5 312/2/5 311/2/5
f 314/2/5 312/2/5 313/2/5
f 317/1/5 316/1/5 315/1/5
f 318/1/5 316/1/5 317/1/5
f 321/1/5 320/1/5 319/1/5
f 322/1/5 320/1/5 321/1/5
f 325/1/5 324/1/5 323/1/5
f 326/1/5 324/1/5 325/1/5
f 329/1/5 328/1/5 327/1/5
f 330/1/5 328/1/5 329/1/5
f 333/1/5 332/1/5 331/1/5
f 334/1/5 332/1/5 333/1/5
f 335/1/6 336/1/6 337/1/6
f 337/1/6 336/1/6 338/1/6
f 339/1/6 340/1/6 341/1/6
f 341/1/6 340/1/6 342/1/6
f 343/1/6 344/1/6 345/1/6
f 345/1/6 344/1/6 346/1/6
f 347/1/6 348/1/6 349/1/6
f 349/1/6 348/1/6 350/1/6
f 351/1/6 352/1/6 353/1/6
f 353/1/6 352/1/6 354/1/6
f 355/2/6 356/2/6 357/2/6
f 357/2/6 356/2/6 358/2/6
f 359/3/6 360/3/6 362/3/6
f 362/3/6 360/3/6 363/3/6
f 361/1/6 362/1/6 364/1/6
f 364/1/6 362/1/6 365/1/6
f 366/1/6 367/1/6 368/1/6
f 368/1/6 367/1/6 369/1/6
f 369/3/6 370/3/6 371/3/6
f 371/3/6 370/3/6 372/3/6
f 373/3/6 374/3/6 376/3/6
f 376/3/6 374/3/6 377/3/6
f 375/1/6 376/1/6 378/1/6
f 378/1/6 376/1/6 379/1/6
f 380/1/6 381/1/6 382/1/6
f 382/1/6 381/1/6 383/1/6
f 383/3/6 384/3/6 385/3/6
f 385/3/6 384/3/6 386/3/6
f 387/3/6 388/3/6 390/3/6
f 390/3/6 388/3/6 391/3/6
f 389/1/6 390/1/6 392/1/6
f 392/1/6 390/1/6 393/1/6
f 393/3/6 394/3/6 395/3/6
f 395/3/6 394/3/6 396/3/6
f 397/3/6 398/3/6 399/3/6
f 399/3/6 398/3/6 400/3/6
